<svg width="38" height="38" viewBox="0 0 38 38" fill="none" xmlns="http://www.w3.org/2000/svg">
<path d="M18.9306 0.0198362C23.1667 0.0198362 27.4032 0.00575082 31.6393 0.02438C34.5754 0.0371023 36.8268 1.70827 37.5402 4.34816C37.686 4.88795 37.7615 5.43864 37.7615 5.99706C37.7633 14.5669 37.7765 23.1368 37.756 31.7062C37.7478 35.1739 35.2002 37.7079 31.7352 37.7129C23.1421 37.7257 14.5487 37.7247 5.95563 37.7034C2.681 37.6952 0.0965453 35.2212 0.0601957 31.9579C-0.00159845 26.3905 0.0324793 20.8222 0.0461104 15.2544C0.049291 13.9631 0.764468 13.4187 2.03761 13.6509C4.61615 14.1207 6.20099 15.771 6.67172 18.5567C7.00568 20.5351 7.29012 22.5225 7.57001 24.5094C7.78947 26.0647 8.27382 26.5114 9.84185 26.5114C14.0943 26.5118 20.0597 26.4296 24.1472 26.4287C25.5121 26.4282 26.1042 26.0815 26.5526 24.7693C27.849 20.9767 29.1453 17.1845 30.4384 13.3906C30.8978 12.0433 30.5865 11.6185 29.1539 11.614C22.7637 11.5949 14.5587 11.5876 8.16841 11.5476C6.64264 11.5381 5.1355 11.3177 3.66607 10.8656C0.716759 9.9578 -0.271948 8.37477 0.0620133 5.31869C0.42778 1.96953 3.36846 -0.0446842 6.14874 0.000752744C10.4089 0.0711799 14.67 0.0198362 18.9306 0.0198362ZM10.2272 27.7741C9.03989 27.7872 8.06345 28.7628 8.05664 29.9428C8.04982 31.13 9.09578 32.1705 10.2785 32.1528C11.4467 32.1356 12.4386 31.1323 12.4445 29.9632C12.4504 28.7469 11.4512 27.7604 10.2272 27.7741ZM22.1207 27.7736C20.903 27.7618 19.8916 28.761 19.9016 29.9659C19.9111 31.13 20.9098 32.1356 22.0735 32.1524C23.258 32.1696 24.2999 31.1291 24.2899 29.94C24.2794 28.7514 23.3116 27.785 22.1207 27.7736Z" fill="white"/>
</svg>
