<svg width="12" height="12" viewBox="0 0 9 12" fill="none" xmlns="http://www.w3.org/2000/svg">
<path d="M3.89406 11.4675C0.787355 7.0503 0.210693 6.59696 0.210693 4.97358C0.210693 2.7499 2.04868 0.947266 4.31596 0.947266C6.58324 0.947266 8.42122 2.7499 8.42122 4.97358C8.42122 6.59696 7.84456 7.0503 4.73786 11.4675C4.53398 11.7563 4.09791 11.7563 3.89406 11.4675ZM4.31596 6.65121C5.26066 6.65121 6.02648 5.90012 6.02648 4.97358C6.02648 4.04705 5.26066 3.29595 4.31596 3.29595C3.37125 3.29595 2.60543 4.04705 2.60543 4.97358C2.60543 5.90012 3.37125 6.65121 4.31596 6.65121Z" fill="white"/>
</svg>
