<svg width="12" height="12" viewBox="0 0 12 12" fill="none" xmlns="http://www.w3.org/2000/svg">
<path fill-rule="evenodd" clip-rule="evenodd" d="M0.993947 1.41479L1.03213 1.37488C2.04656 0.36036 2.70717 0.0914505 3.41202 0.496772C3.61478 0.613365 3.80486 0.776566 4.06333 1.03908L4.85615 1.8612C5.29406 2.33904 5.39361 2.79738 5.25102 3.33416L5.23138 3.40522L5.20958 3.47587L5.10359 3.78684C4.87674 4.48419 4.97145 4.87764 5.77855 5.68454C6.61787 6.52364 7.00965 6.59229 7.7608 6.3298L7.89467 6.28327L8.05655 6.2307L8.12741 6.21104C8.69795 6.05881 9.1799 6.18029 9.69104 6.69108L10.3298 7.30812L10.5179 7.49306C10.7264 7.70567 10.8642 7.87412 10.9659 8.05217C11.3687 8.75682 11.0995 9.41702 10.0558 10.4568L9.95655 10.5574C9.80072 10.7076 9.65514 10.8152 9.44126 10.9168C9.08224 11.0872 8.6581 11.1515 8.16525 11.0829C6.9508 10.914 5.4105 9.95581 3.45877 8.00458C3.29989 7.84574 3.14773 7.68998 3.00212 7.53723L2.71961 7.23571C0.0723177 4.35952 -0.161227 2.5927 0.923661 1.4846L0.993947 1.41479ZM3.42441 1.51647C3.25294 1.34742 3.12839 1.24437 3.01857 1.18122C2.77567 1.04154 2.5134 1.10058 2.02803 1.51834L1.87553 1.65458C1.84892 1.67914 1.82171 1.70463 1.79387 1.73108L1.61899 1.90141L1.60323 1.9211L1.48467 2.04021C1.19817 2.33284 1.06246 2.69 1.17941 3.30423C1.37131 4.31213 2.24968 5.67942 4.01704 7.44633C5.85855 9.28737 7.26165 10.1603 8.2741 10.3011C8.86431 10.3831 9.16536 10.2402 9.47238 9.92567L9.7065 9.68939C9.8163 9.5745 9.91011 9.47036 9.98932 9.37523L10.0974 9.23909C10.3735 8.87128 10.3987 8.65062 10.2806 8.44402C10.2357 8.36541 10.1703 8.27923 10.0752 8.1739L9.94612 8.03757L9.86974 7.96113L9.06382 7.18292C8.7945 6.93457 8.61045 6.89933 8.33102 6.97389L8.25035 6.99709L7.91651 7.11042C6.94803 7.4232 6.24935 7.27153 5.22048 6.24291C4.15488 5.17758 4.0299 4.46618 4.38694 3.44186L4.40985 3.37604L4.47319 3.18521L4.50432 3.06358C4.55953 2.79886 4.4965 2.61428 4.21193 2.32967L4.17287 2.2903L3.42441 1.51647Z" fill="white"/>
</svg>
