<svg width="12" height="12" viewBox="0 0 10 8" fill="none" xmlns="http://www.w3.org/2000/svg">
<path d="M7.94726 0.631348H2.05253C1.71752 0.631348 1.39623 0.76443 1.15934 1.00132C0.92245 1.23821 0.789368 1.5595 0.789368 1.89451V6.10503C0.789368 6.44004 0.92245 6.76133 1.15934 6.99822C1.39623 7.23511 1.71752 7.36819 2.05253 7.36819H7.94726C8.28227 7.36819 8.60356 7.23511 8.84045 6.99822C9.07734 6.76133 9.21042 6.44004 9.21042 6.10503V1.89451C9.21042 1.5595 9.07734 1.23821 8.84045 1.00132C8.60356 0.76443 8.28227 0.631348 7.94726 0.631348ZM2.05253 1.47345H7.94726C8.05893 1.47345 8.16603 1.51781 8.24499 1.59678C8.32395 1.67574 8.36832 1.78284 8.36832 1.89451L4.99989 3.94924L1.63147 1.89451C1.63147 1.78284 1.67583 1.67574 1.7548 1.59678C1.83376 1.51781 1.94086 1.47345 2.05253 1.47345ZM8.36832 6.10503C8.36832 6.2167 8.32395 6.3238 8.24499 6.40276C8.16603 6.48172 8.05893 6.52608 7.94726 6.52608H2.05253C1.94086 6.52608 1.83376 6.48172 1.7548 6.40276C1.67583 6.3238 1.63147 6.2167 1.63147 6.10503V2.85451L4.78095 4.77872C4.84495 4.81567 4.91756 4.83513 4.99147 4.83513C5.06538 4.83513 5.13799 4.81567 5.202 4.77872L8.36832 2.85451V6.10503Z" fill="white"/>
</svg>
