<svg width="12" height="12" viewBox="0 0 12 11" fill="none" xmlns="http://www.w3.org/2000/svg">
<path d="M10.9625 5.50391C10.9625 8.24457 8.74076 10.4663 6.0001 10.4663M10.9625 5.50391C10.9625 2.76325 8.74076 0.541504 6.0001 0.541504M10.9625 5.50391H1.03769M6.0001 10.4663C3.25943 10.4663 1.03769 8.24457 1.03769 5.50391M6.0001 10.4663C7.24133 9.10743 7.94672 7.34395 7.98506 5.50391C7.94672 3.66387 7.24133 1.90039 6.0001 0.541504M6.0001 10.4663C4.75886 9.10743 4.05347 7.34395 4.01513 5.50391C4.05347 3.66387 4.75886 1.90039 6.0001 0.541504M1.03769 5.50391C1.03769 2.76325 3.25943 0.541504 6.0001 0.541504" stroke="white" stroke-linecap="round" stroke-linejoin="round"/>
</svg>
