<svg width="14" height="14" viewBox="0 0 18 20" fill="none" xmlns="http://www.w3.org/2000/svg">
<path d="M0.523438 4.85728H2.33296M2.33296 4.85728H16.8092M2.33296 4.85728V16.8573C2.33296 17.3119 2.52361 17.748 2.86296 18.0695C3.20231 18.391 3.66257 18.5716 4.14248 18.5716H13.1901C13.67 18.5716 14.1303 18.391 14.4696 18.0695C14.809 17.748 14.9996 17.3119 14.9996 16.8573V4.85728H2.33296ZM5.04725 4.85728V3.143C5.04725 2.68834 5.23789 2.2523 5.57724 1.93081C5.9166 1.60932 6.37685 1.42871 6.85677 1.42871H10.4758C10.9557 1.42871 11.416 1.60932 11.7553 1.93081C12.0947 2.2523 12.2853 2.68834 12.2853 3.143V4.85728M6.85677 9.143V14.2859M10.4758 9.143V14.2859" stroke="#DB391E" stroke-linecap="round" stroke-linejoin="round"/>
</svg>
