<svg width="22" height="12" viewBox="0 0 22 12" fill="none" xmlns="http://www.w3.org/2000/svg">
<path d="M10.8232 -6.10352e-05C8.38904 -6.10352e-05 5.76927 0.951901 3.24716 2.75299C1.36174 4.09936 0.198032 5.43323 0.149405 5.48945C-0.0498018 5.71946 -0.0498018 6.06087 0.149405 6.29093C0.198032 6.34705 1.36169 7.68103 3.24716 9.02739C5.76932 10.8283 8.38909 11.7804 10.8232 11.7804C13.2574 11.7804 15.8772 10.8284 18.3993 9.02739C20.2847 7.68103 21.4484 6.3471 21.497 6.29093C21.6962 6.06092 21.6962 5.71951 21.497 5.48945C21.4484 5.43333 20.2847 4.09936 18.3993 2.75299C15.8772 0.95195 13.2574 -6.10352e-05 10.8232 -6.10352e-05ZM1.45135 5.89012C1.92195 5.41027 2.81011 4.56648 3.98277 3.73199C5.59044 2.58802 8.0822 1.22417 10.8232 1.22417C13.5642 1.22417 16.056 2.58802 17.6636 3.73199C18.8362 4.56633 19.7244 5.41022 20.1951 5.89012C19.7245 6.36997 18.8363 7.21376 17.6636 8.04825C16.056 9.19227 13.5642 10.5561 10.8232 10.5561C8.0822 10.5561 5.59044 9.19227 3.98277 8.04825C2.81025 7.21391 1.92205 6.37012 1.45135 5.89012Z" fill="white"/>
</svg>
