<svg width="28" height="28" viewBox="0 0 28 28" fill="none" xmlns="http://www.w3.org/2000/svg">
<g clip-path="url(#clip0_1076_14355)">
<path d="M14 28C21.732 28 28 21.732 28 14C28 6.26801 21.732 0 14 0C6.26801 0 0 6.26801 0 14C0 21.732 6.26801 28 14 28Z" fill="#1672FA"/>
<path d="M17.5478 12.6755L17.3157 14.6245C17.3057 14.715 17.2625 14.7986 17.1945 14.8592C17.1264 14.9197 17.0384 14.9529 16.9473 14.9524H14.921V20.7366C14.9215 20.8056 14.8946 20.8721 14.8463 20.9214C14.798 20.9708 14.7321 20.999 14.6631 21H12.5981C12.5637 20.9995 12.5298 20.9923 12.4983 20.9787C12.4667 20.9651 12.4382 20.9454 12.4142 20.9208C12.3903 20.8962 12.3714 20.867 12.3587 20.8351C12.346 20.8032 12.3397 20.7691 12.3402 20.7347L12.3513 14.9524H10.8168C10.7191 14.9524 10.6254 14.9136 10.5563 14.8445C10.4872 14.7754 10.4484 14.6817 10.4484 14.5839V12.635C10.4484 12.5373 10.4872 12.4436 10.5563 12.3745C10.6254 12.3054 10.7191 12.2666 10.8168 12.2666H12.342V10.3766C12.342 8.19 13.6426 7 15.5473 7H17.1076C17.2053 7 17.299 7.03882 17.3681 7.10791C17.4372 7.177 17.476 7.27071 17.476 7.36842V9.00974C17.476 9.10745 17.4372 9.20116 17.3681 9.27025C17.299 9.33934 17.2053 9.37816 17.1076 9.37816H16.1515C15.1162 9.39474 14.921 9.89026 14.921 10.6308V12.2611H17.1886C17.2403 12.2619 17.2913 12.2737 17.3382 12.2956C17.3851 12.3175 17.4268 12.349 17.4607 12.3881C17.4946 12.4272 17.5199 12.473 17.5349 12.5225C17.5499 12.5721 17.5543 12.6242 17.5478 12.6755Z" fill="white"/>
</g>
<defs>
<clipPath id="clip0_1076_14355">
<rect width="28" height="28" fill="white"/>
</clipPath>
</defs>
</svg>

