<svg width="27" height="27" viewBox="0 0 27 27" fill="none" xmlns="http://www.w3.org/2000/svg">
<path d="M2.58311 24.0727C2.58311 23.7701 2.69361 23.3788 2.55365 23.1869C2.41369 22.995 2.00855 22.9876 1.72127 22.899C1.31612 22.7809 0.903616 22.6775 0.498474 22.5594C0.0491344 22.4339 -0.0760911 22.2199 0.0417684 21.7622C0.50584 19.9315 0.969912 18.1008 1.43398 16.27C1.80966 14.7937 2.18534 13.3247 2.55365 11.8483C2.59048 11.7006 2.60521 11.5382 2.60521 11.3832C2.60521 8.54855 2.60521 5.72128 2.60521 2.88662C2.60521 2.3256 2.71571 2.20749 3.26081 2.14105C3.78381 2.082 4.30681 2.02294 4.82245 1.97865C4.99187 1.96389 5.08026 1.91221 5.11709 1.72766C5.20549 1.29213 5.32335 0.871362 5.44121 0.443211C5.5296 0.111025 5.73586 -0.0366143 6.0747 0.00767719C8.9328 0.376773 11.7614 0.908271 14.5532 1.61694C14.951 1.72028 15.3709 1.72028 15.7834 1.75719C17.5513 1.91221 19.3192 2.05985 21.0871 2.22225C21.2418 2.23702 21.3964 2.36251 21.529 2.46586C21.6395 2.55444 21.7132 2.69469 21.8237 2.79804C22.0962 3.05641 22.2288 3.36645 22.1846 3.74293C22.1625 3.93486 22.2288 4.0382 22.4203 4.10464C22.7813 4.22275 23.1275 4.37039 23.4811 4.49588C23.7094 4.57708 23.8052 4.74687 23.9083 4.95356C24.1367 5.41124 24.0409 5.83939 23.9231 6.28969C23.3927 8.2828 22.8697 10.2759 22.3541 12.2764C22.3172 12.4167 22.2951 12.5643 22.2951 12.712C22.2215 16.0707 22.1478 19.4295 22.0668 22.7809C22.052 23.2976 21.9931 23.8144 22.0005 24.3311C22.0078 24.9659 21.3375 25.4162 20.8734 25.4679C20.402 25.5196 19.9158 25.527 19.437 25.527C19.216 25.527 19.1055 25.586 19.0466 25.8075C18.973 26.0806 18.8625 26.3464 18.7741 26.6195C18.7004 26.8483 18.5457 26.9443 18.3026 26.9738C17.4923 27.0845 16.7336 26.8188 15.9675 26.649C14.5238 26.3168 13.0873 25.9625 11.6509 25.6155C11.5257 25.586 11.4005 25.5713 11.2679 25.5639C8.62342 25.5048 5.98631 25.4531 3.34184 25.3941C2.75254 25.3793 2.61258 25.2391 2.61258 24.6485C2.61258 24.4566 2.61258 24.2647 2.61258 24.0653C2.59785 24.0727 2.59048 24.0727 2.58311 24.0727ZM3.24607 2.7759C3.24607 10.1135 3.24607 17.4364 3.24607 24.774C9.08749 24.8478 14.9142 25.1357 20.7408 24.8626C21.3522 17.5176 21.0797 10.1873 20.9471 2.84233C15.0689 2.10414 9.16852 2.04509 3.24607 2.7759ZM0.631066 21.9541C1.28666 22.1313 1.92015 22.3084 2.58311 22.4856C2.58311 19.7838 2.58311 17.1116 2.58311 14.4393C2.56838 14.4393 2.55365 14.4319 2.53892 14.4319C1.90542 16.927 1.27193 19.4295 0.631066 21.9541ZM5.72849 1.85316C7.69527 1.76457 9.63259 1.68337 11.5699 1.59479C11.511 1.58003 11.452 1.55788 11.3931 1.54312C10.7817 1.42501 10.1703 1.29213 9.55156 1.18878C8.45399 1.00424 7.35643 0.834452 6.25149 0.67205C6.17046 0.657286 6.02314 0.723723 6.00104 0.782778C5.89791 1.13711 5.81688 1.49882 5.72849 1.85316ZM22.2509 4.70258C22.2509 6.08299 22.2509 7.4265 22.2509 8.77001C22.2657 8.77001 22.2878 8.77001 22.3025 8.77001C22.6045 7.54461 22.9065 6.31183 23.2085 5.06429C22.8844 4.9388 22.5603 4.82069 22.2509 4.70258ZM14.4133 25.586C14.4059 25.6082 14.3985 25.6303 14.3985 25.6525C15.4666 25.8887 16.5347 26.1323 17.6176 26.3685C17.706 26.088 17.787 25.8444 17.868 25.586C16.6894 25.586 15.5477 25.586 14.4133 25.586Z" fill="black"/>
<path d="M24.262 3.87578C24.2988 3.83149 24.3504 3.72076 24.4314 3.65432C24.8586 3.32214 25.3006 3.00472 25.7352 2.67991C25.912 2.54704 26.0888 2.48798 26.2435 2.68729C26.3982 2.8866 26.295 3.04901 26.1183 3.1745C25.6763 3.50669 25.2417 3.83887 24.785 4.15629C24.5419 4.33346 24.2693 4.21535 24.262 3.87578Z" fill="black"/>
<path d="M24.6008 1.75718C24.2988 2.32559 24.0263 2.86447 23.7242 3.38858C23.6948 3.44764 23.4664 3.44764 23.3854 3.39596C23.3044 3.34429 23.2307 3.15236 23.2602 3.07854C23.4885 2.57657 23.7316 2.08198 23.9968 1.60216C24.041 1.52096 24.2399 1.46928 24.343 1.49881C24.4461 1.50619 24.5124 1.64645 24.6008 1.75718Z" fill="black"/>
<path d="M24.9691 4.93144C25.4258 4.96096 25.8825 4.99049 26.3466 5.01264C26.5528 5.0274 26.6854 5.13075 26.678 5.33744C26.6633 5.5589 26.5086 5.64748 26.295 5.63272C25.8383 5.60319 25.3816 5.57366 24.9175 5.54413C24.7113 5.52937 24.5787 5.43341 24.5934 5.21933C24.6008 4.99049 24.7628 4.91667 24.9691 4.93144Z" fill="black"/>
<path d="M3.24622 2.77588C9.16866 2.04507 15.069 2.10413 20.9472 2.83494C21.0798 10.1873 21.3524 17.5176 20.741 24.8552C14.9069 25.1283 9.08763 24.8478 3.24622 24.7666C3.24622 17.429 3.24622 10.1135 3.24622 2.77588ZM11.6437 4.51801C9.76532 4.51801 7.88693 4.51801 6.00855 4.51801C5.36032 4.51801 4.91098 4.87235 4.76366 5.51457C4.72683 5.66221 4.71209 5.82461 4.71209 5.97963C4.70473 7.06478 4.70473 8.1573 4.71209 9.24244C4.71209 10.2095 5.213 10.7114 6.17061 10.7114C8.63829 10.7262 11.106 10.741 13.5663 10.7631C14.5313 10.7705 15.4962 10.8443 16.4612 10.8296C17.7945 10.8074 18.3543 10.3202 18.4722 8.99146C18.5606 7.95061 18.5238 6.88761 18.5238 5.83938C18.5238 5.0126 17.9934 4.51063 17.161 4.51063C15.3268 4.51801 13.4853 4.51801 11.6437 4.51801ZM16.8958 22.5963C17.463 22.5963 18.0376 22.5889 18.6048 22.5963C18.8405 22.5963 18.9363 22.5004 18.9363 22.2715C18.9289 21.6367 18.9289 21.0018 18.9363 20.367C18.9363 20.116 18.8331 20.0274 18.5901 20.0274C17.4778 20.0274 16.3655 20.02 15.2532 20.0053C14.9953 20.0053 14.8848 20.1012 14.8848 20.3596C14.8922 20.9871 14.8848 21.6145 14.8848 22.242C14.8848 22.552 14.9364 22.6037 15.2605 22.6037C15.813 22.6037 16.3507 22.5963 16.8958 22.5963ZM10.222 17.2297C12.0562 17.2297 13.883 17.2297 15.7172 17.2297C15.8056 17.2297 15.9235 17.2592 15.9898 17.2149C16.0929 17.1485 16.2402 17.0304 16.2402 16.9418C16.2329 16.831 16.1076 16.7056 16.0045 16.6244C15.9529 16.5801 15.8425 16.6096 15.7614 16.6096C12.0709 16.6096 8.38047 16.6096 4.68999 16.6096C4.61633 16.6096 4.52057 16.5874 4.47637 16.6244C4.37325 16.7129 4.23329 16.8237 4.23329 16.927C4.23329 17.023 4.38061 17.1485 4.48374 17.2149C4.55004 17.2592 4.66053 17.2297 4.75629 17.2297C6.58311 17.2297 8.40257 17.2297 10.222 17.2297ZM8.9403 13.6125C9.35281 13.6125 9.76532 13.6125 10.1852 13.6125C11.187 13.6125 12.1888 13.6125 13.198 13.6125C13.419 13.6125 13.5958 13.5313 13.5884 13.2877C13.5884 13.0589 13.419 12.9851 13.2053 12.9851C13.1611 12.9851 13.117 12.9851 13.0654 12.9851C10.3252 12.9851 7.57755 12.9851 4.83732 12.9851C4.74892 12.9851 4.63843 12.9629 4.56477 13.0072C4.46901 13.0663 4.33642 13.177 4.33642 13.2656C4.33642 13.3763 4.43954 13.5092 4.52794 13.583C4.59423 13.6347 4.71946 13.6125 4.82259 13.6125C6.20007 13.6125 7.57019 13.6125 8.9403 13.6125ZM8.03426 20.5958C9.20549 20.5958 10.3694 20.5958 11.5406 20.5958C11.6216 20.5958 11.7321 20.6254 11.7837 20.5811C11.8868 20.4999 12.0194 20.3818 12.0268 20.2784C12.0341 20.1898 11.8868 20.0717 11.791 19.9905C11.7468 19.9536 11.6511 19.9757 11.5774 19.9757C9.22022 19.9757 6.86303 19.9757 4.50584 19.9757C4.43218 19.9757 4.33642 19.9462 4.29222 19.9831C4.18909 20.0717 4.04913 20.1824 4.04177 20.2932C4.02704 20.5442 4.21856 20.5958 4.43954 20.5958C5.64024 20.5958 6.83356 20.5958 8.03426 20.5958Z" fill="white"/>
<path d="M0.631104 21.9541C1.27196 19.4368 1.90546 16.9344 2.53895 14.4319C2.55369 14.4319 2.56842 14.4393 2.58315 14.4393C2.58315 17.1115 2.58315 19.7838 2.58315 22.4856C1.92756 22.301 1.29406 22.1312 0.631104 21.9541Z" fill="white"/>
<path d="M5.72864 1.85324C5.81703 1.4989 5.89806 1.13719 6.00119 0.782858C6.01592 0.723803 6.17061 0.657365 6.25164 0.672129C7.34921 0.834531 8.45414 1.00432 9.55171 1.18886C10.1705 1.29221 10.7819 1.42508 11.3933 1.5432C11.4522 1.55796 11.5111 1.5801 11.5701 1.59487C9.63273 1.68345 7.70279 1.76465 5.72864 1.85324Z" fill="white"/>
<path d="M22.251 4.70258C22.5604 4.82069 22.8845 4.94618 23.2086 5.07167C22.9066 6.31922 22.6046 7.54461 22.3025 8.77739C22.2878 8.77739 22.2657 8.77739 22.251 8.77739C22.251 7.4265 22.251 6.08299 22.251 4.70258Z" fill="white"/>
<path d="M14.4133 25.5861C15.5477 25.5861 16.6895 25.5861 17.8607 25.5861C17.7797 25.8444 17.6987 26.088 17.6103 26.3685C16.5274 26.1249 15.4593 25.8887 14.3912 25.6525C14.3986 25.6304 14.406 25.6082 14.4133 25.5861Z" fill="white"/>
<path d="M11.6436 4.51807C13.4852 4.51807 15.3267 4.51807 17.1683 4.51807C18.0007 4.51807 18.5237 5.02004 18.531 5.84681C18.531 6.89504 18.5679 7.95066 18.4795 8.99889C18.369 10.3276 17.8091 10.8148 16.4685 10.837C15.5035 10.8518 14.5385 10.7779 13.5736 10.7705C11.1059 10.7484 8.63819 10.7336 6.17787 10.7189C5.22026 10.7115 4.72673 10.2169 4.71936 9.24987C4.71936 8.16473 4.71936 7.07221 4.71936 5.98707C4.71936 5.83205 4.73409 5.66965 4.77092 5.52201C4.91825 4.88716 5.36022 4.53283 6.01581 4.52545C7.88683 4.51807 9.76522 4.51807 11.6436 4.51807ZM11.651 5.14553C9.77259 5.14553 7.8942 5.14553 6.01581 5.14553C5.65487 5.14553 5.45598 5.30793 5.37495 5.66226C5.35286 5.76561 5.33812 5.88372 5.33812 5.98707C5.33812 7.06483 5.33812 8.14259 5.33812 9.22773C5.33812 9.34584 5.35286 9.47133 5.37495 9.58206C5.45598 9.92163 5.65487 10.0766 6.00108 10.084C7.11338 10.0988 8.22568 10.1062 9.33798 10.1209C11.2164 10.1431 13.0948 10.1726 14.9658 10.1948C15.5698 10.2021 16.1812 10.2317 16.7852 10.1874C17.4556 10.1431 17.8091 9.8109 17.846 9.13915C17.8975 8.03186 17.9049 6.92457 17.8975 5.82467C17.8975 5.3596 17.625 5.15291 17.1683 5.15291C15.3341 5.14553 13.4925 5.14553 11.651 5.14553Z" fill="black"/>
<path d="M16.8956 22.5963C16.3505 22.5963 15.8127 22.5963 15.2676 22.5963C14.9435 22.5963 14.892 22.5447 14.892 22.2346C14.892 21.6071 14.8993 20.9797 14.892 20.3522C14.892 20.0865 15.0025 19.9905 15.2603 19.9979C16.3726 20.0127 17.4849 20.02 18.5972 20.02C18.8476 20.02 18.9508 20.116 18.9434 20.3596C18.936 20.9944 18.936 21.6293 18.9434 22.2641C18.9434 22.5004 18.8476 22.5963 18.6119 22.5889C18.0373 22.5963 17.4628 22.5963 16.8956 22.5963Z" fill="black"/>
<path d="M10.222 17.2297C8.40256 17.2297 6.57574 17.2297 4.75628 17.2297C4.66788 17.2297 4.55002 17.2592 4.48373 17.2149C4.37324 17.1411 4.23328 17.023 4.23328 16.927C4.23328 16.8237 4.37323 16.7056 4.47636 16.6244C4.52056 16.5875 4.61632 16.6096 4.68998 16.6096C8.38046 16.6096 12.0709 16.6096 15.7614 16.6096C15.8424 16.6096 15.9529 16.5801 16.0045 16.6244C16.1076 16.713 16.2329 16.8311 16.2402 16.9418C16.2476 17.0304 16.0929 17.1485 15.9898 17.2149C15.9235 17.2592 15.813 17.2297 15.7172 17.2297C13.8904 17.2297 12.0562 17.2297 10.222 17.2297Z" fill="black"/>
<path d="M8.94016 13.6126C7.57004 13.6126 6.19992 13.6126 4.8298 13.6126C4.72668 13.6126 4.60145 13.6347 4.53516 13.583C4.4394 13.5092 4.33627 13.3763 4.34363 13.2656C4.34363 13.177 4.47623 13.0663 4.57199 13.0072C4.63828 12.9629 4.74878 12.9851 4.84454 12.9851C7.58477 12.9851 10.3324 12.9851 13.0726 12.9851C13.1168 12.9851 13.161 12.9851 13.2126 12.9851C13.4188 12.9851 13.5882 13.0589 13.5956 13.2877C13.5956 13.5314 13.4262 13.6126 13.2052 13.6126C12.2034 13.6126 11.2016 13.6126 10.1924 13.6126C9.77254 13.6126 9.36003 13.6126 8.94016 13.6126Z" fill="black"/>
<path d="M8.03426 20.5959C6.84093 20.5959 5.64024 20.5959 4.44691 20.5959C4.22593 20.5959 4.0344 20.5442 4.04914 20.2932C4.0565 20.1825 4.19646 20.0717 4.29959 19.9832C4.34379 19.9463 4.43955 19.9758 4.51321 19.9758C6.8704 19.9758 9.22759 19.9758 11.5848 19.9758C11.6584 19.9758 11.7542 19.9536 11.7984 19.9905C11.8942 20.0717 12.0415 20.1825 12.0341 20.2784C12.0268 20.3892 11.8942 20.5073 11.791 20.5811C11.7395 20.6254 11.629 20.5959 11.548 20.5959C10.3694 20.5959 9.19813 20.5959 8.03426 20.5959Z" fill="black"/>
<path d="M11.6511 5.1455C13.4926 5.1455 15.3342 5.1455 17.1757 5.1455C17.6398 5.1455 17.905 5.3522 17.905 5.81726C17.9124 6.92455 17.905 8.03183 17.8534 9.13174C17.8166 9.80349 17.463 10.1357 16.7927 10.18C16.1887 10.2169 15.5773 10.1947 14.9732 10.1874C13.0948 10.1652 11.2165 10.1431 9.34544 10.1135C8.23314 10.0988 7.12084 10.0914 6.00854 10.0766C5.66233 10.0692 5.46344 9.91422 5.38241 9.57465C5.35295 9.45654 5.34558 9.33843 5.34558 9.22032C5.34558 8.14256 5.34558 7.0648 5.34558 5.97966C5.34558 5.86893 5.36031 5.7582 5.38241 5.65486C5.46344 5.30052 5.66233 5.13812 6.02327 5.13812C7.89429 5.1455 9.77268 5.1455 11.6511 5.1455Z" fill="white"/>
</svg>
