<svg width="502" height="480" viewBox="0 0 502 480" fill="none" xmlns="http://www.w3.org/2000/svg">
<path d="M430.712 321.824C414.041 347.113 385.457 361.978 355.167 361.978H103.763C53.2308 361.978 24.8948 302.896 57.6666 269.627C90.4377 236.358 61.4917 207.944 112.039 181.266C161.011 155.42 177.73 210.513 222.844 174.464C267.958 138.417 333.638 141.817 348.069 178.546C362.499 215.274 359.099 228.199 389.705 236.36C420.312 244.52 450.239 290.771 431.874 320.017C431.492 320.627 431.105 321.229 430.712 321.824Z" fill="#CBD5FC"/>
<path d="M419.536 332.076C393.052 334.322 375.199 383.966 308.991 354.127C308.991 354.127 316.261 332.455 348.828 318.946C381.394 305.437 419.536 332.076 419.536 332.076Z" fill="#C8DDF5"/>
<path d="M318.031 350.41C324.943 346.816 332.113 343.718 339.435 341.023C341.256 340.323 343.103 339.693 344.957 339.079C346.801 338.44 348.67 337.874 350.536 337.297C352.395 336.698 354.288 336.211 356.174 335.7C357.118 335.449 358.058 335.182 359.007 334.944L361.857 334.26L364.716 333.605L367.594 333.038L370.473 332.473C371.434 332.289 372.403 332.146 373.37 331.998C375.306 331.713 377.235 331.388 379.185 331.202C381.133 331 383.07 330.719 385.029 330.646C392.828 330.08 400.715 330.208 408.405 331.509C400.615 331.321 392.892 331.782 385.231 332.726L383.794 332.889L382.363 333.109L379.5 333.527C377.588 333.772 375.694 334.156 373.796 334.499C372.849 334.684 371.894 334.817 370.949 335.014L368.115 335.602L365.283 336.191L362.466 336.866L359.644 337.512C358.705 337.736 357.773 337.99 356.837 338.228L354.032 338.954C353.095 339.191 352.173 339.481 351.239 339.726C349.374 340.238 347.507 340.737 345.659 341.312C343.81 341.875 341.947 342.403 340.104 342.994C332.711 345.297 325.383 347.833 318.031 350.41Z" fill="#ACBED3"/>
<path d="M422.777 247.592C390.462 270.692 405.411 348.103 297.57 360.292C297.57 360.292 290.371 326.898 321.905 284.687C353.44 242.476 422.777 247.592 422.777 247.592Z" fill="#6C83DC"/>
<path d="M304.745 350.965C309.449 340.775 315.254 331.084 321.786 321.91C328.297 312.718 335.599 304.068 343.552 296.056C351.515 288.06 360.142 280.685 369.479 274.32C378.786 267.956 388.828 262.481 399.537 259.069C389.597 264.282 380.387 270.477 371.637 277.272C362.922 284.104 354.68 291.514 346.872 299.363C339.058 307.209 331.695 315.502 324.686 324.114C317.7 332.749 311.134 341.737 304.745 350.965Z" fill="#C8DDF5"/>
<path d="M74.1801 325.176C100.441 329.281 114.754 380.059 182.898 354.956C182.898 354.956 177.172 332.826 145.638 317.058C114.103 301.29 74.1801 325.176 74.1801 325.176Z" fill="#C8DDF5"/>
<path d="M174.14 350.612C166.988 347.525 159.857 344.479 152.644 341.661C150.847 340.941 149.026 340.284 147.221 339.592C145.419 338.889 143.59 338.258 141.767 337.618C140.852 337.307 139.953 336.952 139.036 336.65L136.288 335.729C135.371 335.426 134.459 335.106 133.539 334.816L130.769 333.973L128.007 333.102L125.222 332.315L122.437 331.528C121.508 331.265 120.565 331.065 119.634 330.813C117.765 330.338 115.903 329.822 114.013 329.443L111.185 328.824L109.773 328.504L108.352 328.241C100.777 326.759 93.1043 325.755 85.3209 325.394C93.0838 324.639 100.96 325.066 108.7 326.18C110.65 326.39 112.562 326.806 114.49 327.146C116.422 327.47 118.323 327.929 120.235 328.35C121.189 328.565 122.145 328.776 123.091 329.027L125.922 329.794L128.754 330.562L131.559 331.417L134.356 332.3C135.284 332.604 136.203 332.936 137.127 333.253C138.973 333.896 140.826 334.515 142.639 335.244C144.46 335.951 146.284 336.647 148.079 337.414C149.884 338.157 151.682 338.915 153.451 339.742C160.564 342.946 167.498 346.541 174.14 350.612Z" fill="#ACBED3"/>
<path d="M91.6361 244.037C120.735 268.106 101.376 340.517 202.83 359.296C202.83 359.296 211.893 328.11 184.813 285.968C157.733 243.827 91.6361 244.037 91.6361 244.037Z" fill="#6C83DC"/>
<path d="M196.65 349.972C191.166 340.813 185.521 331.866 179.462 323.221C173.378 314.598 166.949 306.249 160.067 298.289C153.192 290.328 145.881 282.749 138.089 275.675C130.262 268.636 121.963 262.128 112.907 256.477C122.857 260.386 132.035 266.235 140.45 272.883C148.895 279.535 156.592 287.105 163.612 295.226C170.62 303.359 176.963 312.061 182.511 321.227C188.078 330.377 192.915 339.971 196.65 349.972Z" fill="#C8DDF5"/>
<path d="M262.767 311.448C259.124 315.774 255.822 322.946 253.773 324.085C251.724 325.223 248.269 325.618 245.003 336.128C241.739 346.637 258.223 345.199 258.223 345.199C258.223 345.199 265.271 341.151 268.117 331.371L275.175 325.109L262.767 311.448Z" fill="#FFA498"/>
<path d="M250.014 344.046C250.014 344.046 255.35 342.309 259.875 337.53C264.417 332.732 265.003 324.195 265.003 324.195L267.178 328.26L271.53 323.609L273.628 323.407L275.175 325.109L268.116 331.371C265.27 341.15 258.222 345.199 258.222 345.199C258.222 345.199 253.678 345.592 249.834 344.448C249.933 344.2 250.014 344.046 250.014 344.046Z" fill="#C57E75"/>
<path d="M287.478 273.807C282.429 277.498 279.417 280.177 276.906 285.197C274.396 290.218 258.662 308.258 257.659 309.866C256.654 311.475 266.5 328.547 274.381 332.731C274.381 332.731 286.279 319.006 293.141 313.818C300.003 308.629 297.661 290.218 294.48 284.026C291.3 277.833 287.478 273.807 287.478 273.807Z" fill="#DC466F"/>
<path d="M287.295 307.027V296.779C287.295 296.779 288.631 296.244 289.673 299.703C290.089 301.087 290.057 302.541 289.871 303.794L297.532 298.033C297.848 304.482 296.813 311.043 293.142 313.819C286.28 319.006 274.382 332.731 274.382 332.731C272.349 331.652 270.185 329.712 268.111 327.404C272.955 322.58 282.147 313.268 287.295 307.027Z" fill="#D12050"/>
<path d="M238.349 341.15C237.039 341.559 236.071 342.185 236.071 343.836C236.071 345.487 236.356 348.105 236.982 349.129C237.608 350.154 240.841 350.768 240.841 350.768C240.841 350.768 240.625 343.95 239.942 342.698C239.259 341.445 238.349 341.15 238.349 341.15Z" fill="#FFA498"/>
<path d="M236.981 349.13C236.806 348.842 236.659 348.421 236.536 347.938C237.237 348.628 237.473 348.633 238.332 348.723L240.786 349.489C240.824 350.256 240.84 350.769 240.84 350.769C240.84 350.769 237.607 350.155 236.981 349.13Z" fill="#C57E75"/>
<path d="M241.478 338.657C239.884 338.828 238.29 340.023 238.29 341.673C238.29 343.324 237.721 347.935 238.29 348.675C238.86 349.414 241.649 351.521 242.616 351.692C243.584 351.862 245.227 351.578 245.003 351.065C244.779 350.553 241.478 338.657 241.478 338.657Z" fill="#FFA498"/>
<path d="M238.047 347.435C239.256 348.799 242.346 348.677 242.346 348.677C242.346 348.677 243.704 350.127 243.872 350.593C243.972 350.875 244.529 351.245 244.604 351.532C244.094 351.726 243.222 351.799 242.615 351.692C241.666 351.524 238.972 349.5 238.331 348.723L238.047 347.439V347.435Z" fill="#C57E75"/>
<path d="M247.449 335.933C242.559 336.209 241.648 336.664 241.478 338.656C241.306 340.648 241.421 346.455 242.046 347.935C242.673 349.414 243.014 350.724 243.811 351.52C244.608 352.317 245.801 352.32 245.801 352.32C245.801 352.32 248.478 348.39 248.592 345.089C248.706 341.787 247.449 335.933 247.449 335.933Z" fill="#FFA498"/>
<path d="M244.637 349.05C244.885 347.698 245.435 346.257 245.504 341.732C245.531 340.032 247.107 348.909 246.403 351.345C246.052 351.949 245.801 352.32 245.801 352.32C245.801 352.32 244.608 352.317 243.812 351.52C243.014 350.723 242.673 349.414 242.047 347.934C242.006 347.838 241.968 347.722 241.931 347.592C242.25 348.422 243.264 348.966 244.637 349.05Z" fill="#C57E75"/>
<path d="M258.155 345.943C257.848 348.663 254.285 349.642 253.886 351.008C253.488 352.374 253.772 353.627 253.089 353.968C252.406 354.31 249.561 352.716 249.675 350.895C249.675 350.895 248.934 352.431 247.283 352.716C245.633 353 245.234 351.795 245.519 349.978C245.803 348.162 245.747 347.194 245.69 345.032C245.633 342.869 245.12 340.877 246.088 338.485C247.056 336.095 248.365 333.989 250.983 334.388C253.602 334.786 255.196 338.087 256.618 339.226C258.041 340.364 258.496 342.926 258.155 345.943Z" fill="#FFA498"/>
<path d="M249.675 350.894C249.834 347.435 250.014 344.604 250.014 344.046C250.014 343.488 249.834 339.816 251.139 339.593C251.337 339.559 254.207 341.378 254.263 342.606C254.319 343.833 254.263 346.037 253.371 346.665C252.478 347.293 249.675 350.894 249.675 350.894Z" fill="#C57E75"/>
<path d="M368.291 281.181C363.103 274.598 361.317 273.929 355.961 270.805C350.605 267.68 330.298 259.758 326.113 258.753C321.929 257.749 305.053 265.616 299.515 268.126C293.978 270.637 286.932 273.107 285.731 275.554C281.712 283.744 289.672 295.352 289.714 319.677C289.736 332.417 292.639 361.066 292.639 361.066C292.639 361.066 356.408 361.185 357.3 359.846C358.193 358.507 360.425 312.759 361.541 303.386C362.657 294.013 368.291 281.181 368.291 281.181Z" fill="#DC466F"/>
<path d="M285.966 288.377C285.488 286.837 285.205 285.269 284.965 283.695C284.747 282.117 284.575 280.533 284.599 278.921C285.078 280.46 285.362 282.028 285.599 283.603C285.817 285.181 285.988 286.765 285.966 288.377Z" fill="#D12050"/>
<path d="M309.812 278.795C307.348 277.875 301.511 279.476 300.444 279.847C299.377 280.218 301.071 275.657 301.699 275.093C302.326 274.528 303.331 273.212 305.256 273.808C307.181 274.403 308.798 276.606 309.077 277.332C309.356 278.056 309.812 278.795 309.812 278.795Z" fill="#D12050"/>
<path d="M330.34 282.604C329.461 282.562 324.335 280.205 323.109 279.619C321.881 279.033 316.321 278.759 312.587 279.803C312.587 279.803 319.775 274.946 323.959 274.988C328.143 275.03 329.734 276.536 330.068 277.875C330.403 279.214 330.34 282.604 330.34 282.604Z" fill="#D12050"/>
<path d="M302.928 350.808C303.613 350.138 345.259 351.478 346.096 347.126C346.932 342.775 347.508 334.86 347.508 334.86C342.494 337.538 335.216 336.423 335.216 336.423C340.07 334.838 347.099 326.874 347.434 324.531C348.466 317.312 344.609 297.411 344.609 297.411L347.434 291.726L350.741 289.884C350.741 289.884 357.009 293.006 362.369 298.749C362.007 300.338 361.718 301.905 361.541 303.386C360.49 312.223 358.446 353.386 357.468 359.189C344.568 359.664 321.186 360.521 305.539 361.058C297.958 361.076 292.639 361.066 292.639 361.066C292.639 361.066 292.542 357.298 292.314 351.894C296.679 351.639 302.504 351.223 302.928 350.808Z" fill="#D12050"/>
<path d="M311.384 280.009C315.878 279.467 323.1 275.574 325.946 276.912C328.791 278.251 329.46 281.682 330.046 282.268C330.632 282.854 333.142 279.925 333.142 272.728C333.142 265.531 333.363 258.162 328.064 257.16C322.766 256.158 309.041 261.347 306.279 263.439C303.518 265.531 302.346 267.65 301.594 269.687C300.84 271.724 298.832 279.925 299.752 280.009C300.673 280.093 303.267 274.737 305.192 274.569C307.116 274.402 310.168 280.156 311.384 280.009Z" fill="#DC466F"/>
<path d="M308.828 273.565C307.682 270.846 306.427 268.46 306.469 266.578C306.511 264.694 306.929 263.398 309.022 262.812C311.113 262.226 311.992 263.355 312.118 266.201C312.243 269.046 308.828 273.565 308.828 273.565Z" fill="#D12050"/>
<path d="M325.234 268.495C329.608 264.527 330.104 260.091 329.693 259.171C329.281 258.251 327.475 257.581 327.475 257.581C327.475 257.581 326.764 260.468 327.182 261.18C327.6 261.891 325.234 268.495 325.234 268.495Z" fill="#D12050"/>
<path d="M318.271 278.087C319.337 277.609 320.449 277.236 321.583 276.927C322.723 276.65 323.893 276.429 325.11 276.508C325.71 276.553 326.354 276.684 326.891 277.109C327.364 277.555 327.724 277.959 328.127 278.418C328.923 279.323 329.472 280.422 329.977 281.455C330.089 281.693 330.265 281.973 330.343 281.998C330.352 282.001 330.348 282.016 330.438 281.959C330.514 281.906 330.602 281.814 330.682 281.714C331.008 281.297 331.275 280.776 331.536 280.268C332.063 279.267 332.346 278.157 332.57 277.026C332.788 275.894 332.914 274.739 332.995 273.582C333.094 272.424 333.128 271.26 333.143 270.092C333.373 272.416 333.377 274.769 333.055 277.107C332.899 278.273 332.607 279.45 332.08 280.536C331.821 281.069 331.557 281.595 331.172 282.105C331.07 282.231 330.961 282.358 330.799 282.475C330.722 282.533 330.615 282.588 330.488 282.619C330.356 282.65 330.196 282.629 330.077 282.573C329.838 282.453 329.737 282.292 329.639 282.155C329.547 282.015 329.474 281.878 329.405 281.743C328.899 280.683 328.397 279.67 327.66 278.806C327.308 278.377 326.895 277.905 326.532 277.54C326.152 277.224 325.61 277.067 325.061 276.998C323.947 276.866 322.783 277.021 321.651 277.234C320.51 277.434 319.387 277.745 318.271 278.087Z" fill="#D12050"/>
<path d="M307.966 276.586C307.481 276.156 306.999 275.728 306.473 275.371C306.213 275.193 305.947 275.023 305.673 274.905C305.534 274.852 305.401 274.811 305.276 274.795C305.221 274.801 305.162 274.796 305.118 274.81C305.077 274.837 305.053 274.826 304.974 274.885C303.895 275.55 303.055 276.465 302.342 277.511C301.979 278.015 301.662 278.593 301.234 279.117C301.02 279.376 300.793 279.628 300.504 279.852C300.354 279.956 300.201 280.078 299.931 280.11C299.802 280.131 299.621 280.076 299.512 279.978C299.403 279.879 299.347 279.765 299.316 279.668C299.198 279.271 299.236 278.942 299.267 278.606C299.308 278.276 299.367 277.953 299.441 277.635C299.601 277.001 299.779 276.379 300.006 275.77C299.919 276.413 299.804 277.048 299.751 277.687C299.715 278.004 299.691 278.321 299.686 278.634C299.685 278.937 299.691 279.271 299.783 279.488C299.802 279.543 299.834 279.572 299.844 279.58C299.86 279.578 299.844 279.585 299.876 279.575C299.93 279.57 300.056 279.497 300.158 279.409C300.372 279.228 300.573 278.991 300.756 278.742C301.134 278.256 301.436 277.695 301.815 277.145C302.196 276.608 302.612 276.087 303.096 275.623C303.579 275.16 304.139 274.764 304.717 274.458C304.77 274.421 304.905 274.372 305.015 274.341C305.125 274.319 305.233 274.332 305.336 274.337C305.531 274.377 305.7 274.446 305.855 274.529C306.159 274.701 306.419 274.909 306.667 275.128C307.146 275.58 307.587 276.058 307.966 276.586Z" fill="#D12050"/>
<path d="M308.214 257.218C308.224 258.986 308.295 260.749 308.478 262.509C308.929 266.823 308.488 272.515 308.829 273.565C309.209 274.737 311.469 278.921 311.469 278.921C311.469 278.921 315.486 277.08 317.16 275.072C318.833 273.063 321.009 272.961 323.938 269.999C326.868 267.038 328.858 262.333 328.206 258.418C328.123 257.916 327.608 252.904 327.494 247.715C327.381 242.527 321.929 238.584 316.741 238.584C311.553 238.584 308.446 246.283 308.284 251.472C308.217 253.601 308.205 255.601 308.214 257.218Z" fill="#FFA498"/>
<path d="M327.494 247.715C327.609 252.904 328.122 257.916 328.206 258.418C328.408 259.629 328.356 260.915 328.102 262.201C326.954 262.413 312.178 262.769 308.349 260.987C308.262 259.733 308.222 258.477 308.214 257.218C308.205 255.601 308.217 253.601 308.284 251.472C308.353 249.273 308.952 246.624 310.014 244.3L322.169 239.991C325.153 241.583 327.422 244.39 327.494 247.715Z" fill="#C57E75"/>
<path d="M299.112 226.11C291.26 226.11 288.323 232.141 288.323 236.661C288.323 240.718 289.623 247.211 299.112 247.211C303.856 247.211 307.069 242.488 307.069 236.661C307.069 230.834 303.856 226.11 299.112 226.11Z" fill="#488747"/>
<path d="M298.764 228.694C292.835 228.694 290.617 233.248 290.617 236.661C290.617 239.724 291.598 244.628 298.764 244.628C302.347 244.628 304.772 241.061 304.772 236.661C304.772 232.261 302.347 228.694 298.764 228.694Z" fill="#38295C"/>
<path d="M289.207 229.671C289.67 232.422 291.032 233.474 291.64 237.182C292.248 240.89 290.626 246.28 293.045 250.973C295.465 255.668 299.376 261.838 301.636 262.099C303.896 262.36 321.996 259.302 328.103 247.158C329.856 243.672 333.603 230.002 330.397 221.655C327.19 213.308 321.975 205.659 309.922 205.427C297.869 205.195 286.748 215.091 289.207 229.671Z" fill="#FFA498"/>
<path d="M299.286 244.709C299.93 244.724 300.637 244.479 300.955 244.056C301.233 243.687 301.349 243.2 301.267 242.745C300.324 243.521 299.169 243.654 298.009 243.452C297.866 244.317 298.533 244.691 299.286 244.709Z" fill="#C57E75"/>
<path d="M320.609 229.671C320.15 226.81 318.238 225.159 318.238 225.159C318.238 225.159 313.631 223.246 310.068 222.899C306.503 222.551 302.853 221.508 302.853 221.508C302.853 221.508 303.983 224.37 305.895 225.589C305.895 225.589 297.377 225.159 294.682 222.638C294.682 222.638 295.204 224.716 295.726 226.11C295.726 226.11 291.553 225.68 290.249 224.029C290.249 224.029 289.207 227.665 289.207 229.671C289.207 229.671 284.194 222.811 285.469 217.365C286.744 211.918 288.482 209.831 288.482 209.831C288.482 209.831 284.889 210.179 282.919 209.831C282.919 209.831 287.555 205.775 291.032 203.11C294.508 200.444 304.939 200.328 304.939 200.328C304.939 200.328 304.127 197.547 305.054 193.143C305.054 193.143 309.516 199.691 314.239 201.69C318.962 203.689 318.326 203.52 323.333 204.783C328.341 206.047 333.101 209.252 335.1 211.947C337.099 214.641 339.273 217.423 340.576 217.857C340.576 217.857 337.447 217.423 335.883 216.118C335.883 216.118 338.491 222.044 335.043 229.671C331.595 237.298 322.955 235.042 321.28 233.358C319.605 231.674 320.609 229.671 320.609 229.671Z" fill="#4375F1"/>
<path d="M321.28 233.358C319.605 231.675 320.609 229.672 320.609 229.672C320.332 227.941 319.523 226.656 318.927 225.908C320.18 218.308 319.669 210.418 317.443 203.043C318.744 203.572 319.516 203.809 321.4 204.293C323.713 207.771 325.442 211.685 326.633 215.649C328.149 220.697 328.883 226.15 327.468 231.228C327.106 232.53 326.577 233.799 325.908 234.988C323.764 234.809 321.956 234.038 321.28 233.358Z" fill="#9A4234"/>
<path d="M323.639 226.839C323.639 226.839 324.235 207.775 314.24 201.69C314.24 201.69 321.975 200.821 326.408 208.557C330.841 216.293 330.542 222.928 330.43 226.647C330.318 230.365 323.639 226.839 323.639 226.839Z" fill="#488747"/>
<path d="M326.686 226.11C334.538 226.11 337.476 232.141 337.476 236.661C337.476 240.718 336.175 247.211 326.686 247.211C321.942 247.211 318.73 242.488 318.73 236.661C318.73 230.834 321.942 226.11 326.686 226.11Z" fill="#488747"/>
<path d="M322.454 236.661C322.454 231.488 325.868 227.295 330.081 227.295C334.293 227.295 337.476 231.488 337.476 236.661C337.476 241.834 334.293 246.028 330.081 246.028C325.868 246.028 322.454 241.834 322.454 236.661Z" fill="#C22373"/>
<path d="M325.897 236.661C325.897 233.141 328.22 230.287 331.087 230.287C333.953 230.287 336.277 233.141 336.277 236.661C336.277 240.182 333.953 243.035 331.087 243.035C328.22 243.035 325.897 240.182 325.897 236.661Z" fill="#D67AA8"/>
<path d="M306.787 247.212C304.666 248.379 297.735 248.77 297.264 248.704C296.792 248.64 297.76 253.902 299.457 254.096C301.155 254.291 304.55 253.837 305.964 252.474C307.378 251.111 306.787 247.212 306.787 247.212Z" fill="#C57E75"/>
<path d="M305.851 234.633C305.851 233.673 306.324 232.895 306.908 232.895C307.493 232.895 307.966 233.673 307.966 234.633C307.966 235.593 307.493 236.371 306.908 236.371C306.324 236.371 305.851 235.593 305.851 234.633Z" fill="#471052"/>
<path d="M293.411 235.496C293.411 234.536 293.818 233.758 294.321 233.758C294.823 233.758 295.23 234.536 295.23 235.496C295.23 236.456 294.823 237.234 294.321 237.234C293.818 237.234 293.411 236.456 293.411 235.496Z" fill="#471052"/>
<path d="M311.773 227.855C311.05 227.457 310.272 227.183 309.474 226.954C308.672 226.738 307.84 226.612 306.996 226.582C306.157 226.54 305.269 226.516 304.456 226.83C303.642 227.111 302.903 227.623 302.359 228.298L302.42 228.401C303.294 228.307 304.015 228.093 304.776 227.992C305.52 227.88 306.243 227.609 307.02 227.546C308.559 227.415 310.172 227.537 311.724 227.966L311.773 227.855Z" fill="#471052"/>
<path d="M290.691 230.102C291.068 229.956 291.465 229.864 291.86 229.819C292.253 229.766 292.647 229.746 293.037 229.742C293.43 229.736 293.821 229.876 294.203 229.783C294.397 229.739 294.594 229.702 294.796 229.618C294.999 229.549 295.206 229.459 295.428 229.303L295.44 229.184C295.062 228.814 294.634 228.657 294.2 228.578C293.761 228.495 293.326 228.672 292.904 228.787C292.48 228.898 292.065 229.046 291.674 229.245C291.291 229.458 290.915 229.68 290.617 230.008L290.691 230.102Z" fill="#471052"/>
<path d="M302.927 354.933C302.932 355.202 302.555 355.591 301.635 355.591H272.609C269.263 355.591 268.481 354.267 269.486 352.594C270.49 350.919 274.73 347.237 285.218 344.671C295.707 342.104 301.222 348.105 302.927 350.808C304.178 352.79 302.927 354.933 302.927 354.933Z" fill="#488747"/>
<path d="M269.239 353.096C269.816 355.015 291.963 354.015 291.963 354.015C291.963 354.015 289.718 350.981 287.235 350.894C284.752 350.808 283.545 351.67 280.216 352.243C276.886 352.816 279.355 350.888 279.355 350.888C279.355 350.888 277.002 350.367 276.045 349.625C276.045 349.625 281.531 348.004 283.833 347.627C286.133 347.251 291.992 347.502 292.745 347.627C293.277 347.716 295.981 346.146 299.247 346.934C301.071 348.267 302.277 349.776 302.928 350.808C304.178 352.789 302.928 354.932 302.928 354.932C302.932 355.201 302.555 355.591 301.636 355.591H272.61C269.607 355.591 268.674 354.524 269.239 353.096Z" fill="#38295C"/>
<path d="M363.969 336.785C363.969 336.785 343.328 339.976 332.14 341.979C321.541 343.875 312.39 344.699 309.796 344.196C307.201 343.694 298.33 340.43 295.485 339.259C292.64 338.087 286.949 337.417 284.02 338.338C281.091 339.259 278.692 340.263 277.52 340.263C276.349 340.263 276.572 342.16 278.134 342.55C279.697 342.941 281.091 342.886 281.091 342.886C281.091 342.886 275.791 345.786 274.842 346.065C273.894 346.344 275.018 348.073 276.301 347.962C276.301 347.962 275.178 348.632 275.568 349.301C275.959 349.97 278.748 349.97 278.748 349.97C278.748 349.97 275.345 351.645 278.19 352.314C281.036 352.983 284.438 349.803 285.834 349.524C287.228 349.245 290.464 349.413 292.026 350.584C293.588 351.755 300.283 357.168 309.432 353.932C309.432 353.932 371.536 356.448 377.729 356.448C383.921 356.448 387.662 350.975 385.676 340.43C383.691 329.886 379.841 322.02 379.841 322.02L358.417 323.526L363.969 336.785Z" fill="#FFA498"/>
<path d="M285.981 341.209C286.528 341.08 286.963 341.005 287.236 340.988C287.236 340.988 286.706 341.08 285.981 341.209Z" fill="#C57E75"/>
<path d="M281.091 342.885C281.091 342.885 279.696 342.941 278.134 342.551C277.695 342.441 277.366 342.21 277.139 341.938C278.877 342.706 281.015 342.216 282.186 341.937C282.925 341.761 284.74 341.43 285.981 341.209C284.738 341.501 282.918 342.071 281.091 342.885Z" fill="#C57E75"/>
<path d="M281.364 345.396C281.498 345.335 281.612 345.287 281.685 345.265C281.685 345.265 281.564 345.313 281.364 345.396Z" fill="#C57E75"/>
<path d="M274.853 347.308C274.873 347.326 275.485 347.867 276.775 347.305C277.849 346.838 280.456 345.768 281.364 345.396C280.221 345.915 277.125 347.663 276.301 347.963C275.73 348.012 275.193 347.697 274.853 347.308Z" fill="#C57E75"/>
<path d="M278.058 349.357C279.006 349.077 280.987 347.878 282.2 347.305C283.413 346.731 284.962 346.665 284.962 346.665C284.962 346.665 284.502 346.707 283.288 347.305C282.075 347.903 278.747 349.97 278.747 349.97C278.747 349.97 276.957 349.97 276.045 349.625C276.054 349.625 277.113 349.634 278.058 349.357Z" fill="#C57E75"/>
<path d="M295.716 350.724C297.473 351.812 302.662 353.235 305.758 352.649C308.855 352.063 309.524 349.469 309.524 349.469L310.39 352.259C310.39 352.259 353.46 353.486 362.219 353.092C370.878 352.703 384.383 352.506 386.146 347.305C385.662 353.342 382.392 356.449 377.728 356.449C371.536 356.449 309.432 353.932 309.432 353.932C300.283 357.168 293.588 351.756 292.026 350.585C290.727 349.611 288.275 349.332 286.682 349.426H286.683C289.058 348.594 293.959 349.636 295.716 350.724Z" fill="#C57E75"/>
<path d="M363.968 336.785C363.968 336.785 372.037 335.688 373.655 335.521L372.428 330.5L362.218 332.564L363.968 336.785Z" fill="#C57E75"/>
<path d="M385.534 322.729C385.838 323.516 385.645 324.399 385.042 324.987C381.292 328.649 376.368 333.638 371.305 334.405C365.781 335.241 356.576 335.577 356.073 334.405C355.571 333.233 353.73 318.337 350.383 310.805C347.035 303.274 344.859 299.425 344.022 295.073C343.186 290.721 350.717 280.511 354.065 279.674C357.413 278.837 365.112 278.335 368.292 281.181C371.472 284.026 373.815 294.905 377.497 303.107C380.469 309.724 384.203 319.284 385.534 322.729Z" fill="#DC466F"/>
<path d="M364.817 279.528C363.792 279.41 362.767 279.325 361.741 279.302C360.716 279.261 359.692 279.264 358.672 279.325C357.653 279.386 356.638 279.489 355.64 279.668C355.137 279.748 354.645 279.864 354.151 279.975C353.692 280.142 353.218 280.264 352.795 280.529C352.345 280.731 351.954 281.049 351.54 281.324C351.165 281.656 350.763 281.957 350.419 282.329C349.684 283.02 349.064 283.832 348.436 284.633C347.823 285.448 347.267 286.309 346.738 287.188C346.193 288.059 345.71 288.965 345.239 289.883C345.93 287.936 346.887 286.085 348.033 284.348C348.616 283.487 349.249 282.65 349.989 281.901C350.336 281.506 350.762 281.184 351.155 280.831C351.594 280.53 352.006 280.19 352.497 279.962C352.958 279.683 353.49 279.542 354.001 279.368C354.514 279.26 355.023 279.138 355.542 279.071C356.576 278.923 357.617 278.825 358.657 278.834C360.734 278.829 362.81 279.031 364.817 279.528Z" fill="#D12050"/>
<path d="M381.354 325.813C381.327 323.138 375.68 298.622 370.691 284.957C372.812 289.626 374.794 297.086 377.497 303.106C380.468 309.724 384.202 319.284 385.534 322.729C385.837 323.515 385.644 324.399 385.042 324.988C383.605 326.39 381.995 327.986 380.273 329.466C380.403 329.341 381.38 328.31 381.354 325.813Z" fill="#D12050"/>
<path d="M112.132 298.194C112.03 299.019 112.203 299.85 112.603 300.579C114.064 303.235 114.804 306.287 114.709 309.317C114.645 311.314 114.235 313.357 114.779 315.28C115.717 318.597 119.218 320.648 120.344 323.905C121.343 326.793 120.414 330.425 122.49 332.667C123.004 333.223 123.803 333.649 124.507 333.367C124.859 333.226 125.124 332.931 125.375 332.646C127.755 329.943 130.302 326.658 129.569 323.133C128.879 319.821 125.465 317.583 124.819 314.262C124.291 311.549 125.678 308.419 124.123 306.134C123.694 305.502 123.08 305.021 122.611 304.419C120.762 302.045 121.447 298.261 119.317 296.137C118.623 295.444 117.754 295.051 116.806 294.848C114.573 294.371 112.412 295.927 112.132 298.193V298.194Z" fill="#D35E5A"/>
<path d="M125.666 340.275C125.809 338.509 125.87 336.741 125.936 334.969C125.855 333.203 125.761 331.436 125.61 329.67C125.458 327.905 125.26 326.139 124.948 324.384C124.63 322.64 124.211 320.859 123.478 319.219C122.196 315.979 121.16 312.591 120.114 309.233L118.595 304.171C117.972 302.517 117.363 300.861 116.775 299.192C117.033 300.948 117.435 302.671 117.787 304.407L119.308 309.48C120.361 312.855 121.387 316.223 122.701 319.544C123.41 321.132 123.803 322.812 124.118 324.532C124.424 326.25 124.62 327.993 124.77 329.742C124.917 331.491 125.02 333.247 125.087 335.004L125.666 340.275Z" fill="#FFA8A5"/>
<path d="M116.34 304.467C116.631 304.908 117.006 305.239 117.409 305.531C117.616 305.67 117.859 305.761 118.085 305.874C118.314 305.984 118.514 306.132 118.699 306.299L118.78 306.372L118.851 306.262C119.02 306.004 119.224 305.765 119.386 305.504C119.542 305.24 119.705 304.981 119.844 304.708C120.113 304.16 120.313 303.576 120.415 302.945L120.365 302.92C119.924 303.383 119.581 303.895 119.306 304.442C119.172 304.717 119.065 305.004 118.949 305.287C118.838 305.574 118.771 305.882 118.668 306.171L118.821 306.135C118.605 306.007 118.405 305.86 118.233 305.673C118.058 305.492 117.9 305.287 117.707 305.131C117.309 304.832 116.883 304.572 116.374 304.423L116.34 304.467Z" fill="#FFA8A5"/>
<path d="M116.768 310.507C117.071 310.758 117.384 311.027 117.712 311.254C118.039 311.485 118.372 311.709 118.731 311.888C119.095 312.063 119.481 312.201 119.83 312.399C120.182 312.593 120.502 312.838 120.815 313.092L120.926 313.182L121.037 313.036C121.521 312.401 121.936 311.727 122.327 311.04C122.695 310.339 123.023 309.616 123.258 308.841L123.21 308.813C122.667 309.415 122.217 310.069 121.807 310.745C121.419 311.435 121.055 312.138 120.762 312.88L120.984 312.824C120.617 312.653 120.256 312.473 119.925 312.245C119.593 312.02 119.295 311.737 118.975 311.492C118.651 311.252 118.297 311.059 117.936 310.879C117.57 310.704 117.207 310.533 116.78 310.452L116.768 310.507Z" fill="#FFA8A5"/>
<path d="M118.914 318.478C119.247 318.814 119.618 319.061 120.001 319.284C120.378 319.517 120.794 319.671 121.235 319.775C121.676 319.882 122.075 320.076 122.43 320.348C122.785 320.617 123.132 320.914 123.486 321.147L123.754 321.322L123.953 321.024C124.247 320.583 124.514 320.129 124.721 319.641C124.929 319.155 125.113 318.654 125.216 318.11L125.154 318.076C124.749 318.455 124.426 318.878 124.126 319.314C123.825 319.75 123.584 320.219 123.369 320.702L123.837 320.579C123.432 320.356 123.001 320.228 122.575 320.078C122.149 319.932 121.76 319.721 121.41 319.429C121.062 319.133 120.68 318.9 120.26 318.746C119.844 318.585 119.414 318.454 118.944 318.415L118.914 318.478Z" fill="#FFA8A5"/>
<path d="M128.476 340.62C129.856 340.393 135.032 338.737 134.672 337.386C133.119 331.584 131.568 325.002 136.941 322.164C139.527 320.799 142.773 320.105 144.245 317.578C145.762 314.976 144.646 311.668 143.284 308.982C141.923 306.294 140.285 303.419 140.868 300.463C141.479 297.369 144.405 295.086 144.873 291.966C145.512 287.708 141.376 284.276 137.404 282.613C136.053 282.048 134.567 281.564 133.143 281.908C132.126 282.153 131.244 282.806 130.547 283.586C127.756 286.706 127.87 291.415 128.507 295.552C129.144 299.69 130.118 304.059 128.56 307.945C127.453 310.704 125.083 313.3 125.718 316.204C125.972 317.368 126.698 318.383 126.975 319.542C127.72 322.664 125.126 325.478 123.937 328.46C122.403 332.308 123.456 337.011 126.365 339.931C126.918 340.486 127.702 340.747 128.476 340.62Z" fill="#FF7571"/>
<path d="M127.987 340.685C128.307 338.388 128.627 336.1 129.036 333.828C129.133 333.26 129.252 332.695 129.344 332.127C129.43 331.558 129.481 330.985 129.575 330.417C129.747 329.28 129.938 328.147 130.155 327.021C130.593 324.77 131.118 322.53 131.887 320.399C132.272 319.338 132.731 318.299 133.334 317.405C133.635 316.959 133.99 316.563 134.382 316.296C134.899 315.956 135.393 315.519 135.778 314.997C136.574 313.942 136.814 312.602 136.786 311.395C136.759 310.171 136.527 309.002 136.269 307.86C135.737 305.582 135.067 303.381 134.695 301.14C134.316 298.91 134.243 296.626 134.832 294.487C135.012 293.965 135.155 293.434 135.327 292.902C135.502 292.373 135.73 291.859 135.987 291.355C136.503 290.348 137.175 289.41 137.92 288.518C137.007 289.235 136.16 290.063 135.453 291.02C135.098 291.497 134.766 291.998 134.484 292.53C134.191 293.057 133.944 293.617 133.815 294.208C133.171 296.55 133.263 299.001 133.655 301.314C134.043 303.639 134.724 305.874 135.242 308.096C135.494 309.207 135.709 310.322 135.732 311.412C135.755 312.498 135.545 313.56 134.931 314.371C134.627 314.778 134.247 315.124 133.799 315.419C133.233 315.805 132.814 316.298 132.467 316.806C131.778 317.831 131.303 318.93 130.897 320.037C130.096 322.258 129.567 324.536 129.12 326.821C128.9 327.964 128.707 329.111 128.533 330.26C128.454 330.837 128.347 331.408 128.278 331.985C128.219 332.563 128.193 333.145 128.156 333.725C128.03 336.047 127.944 338.366 127.987 340.685Z" fill="#FFA8A5"/>
<path d="M137.156 295.4C136.759 295.539 136.426 295.771 136.117 296.018C135.811 296.269 135.519 296.535 135.303 296.873C135.086 297.207 134.891 297.56 134.612 297.835C134.343 298.12 134.019 298.351 133.708 298.601L134.117 298.627C133.979 298.329 133.809 298.051 133.653 297.765C133.492 297.483 133.33 297.202 133.14 296.94C132.96 296.671 132.755 296.418 132.561 296.16C132.364 295.902 132.143 295.663 131.965 295.389L131.896 295.401C131.881 295.762 131.99 296.098 132.101 296.415C132.222 296.73 132.357 297.035 132.521 297.324C132.673 297.619 132.867 297.886 133.062 298.152C133.264 298.414 133.456 298.679 133.688 298.922L133.944 299.191L134.097 298.948C134.307 298.616 134.509 298.27 134.77 297.981C135.02 297.681 135.361 297.465 135.683 297.235C136.007 297.007 136.262 296.716 136.512 296.42C136.761 296.119 136.992 295.811 137.201 295.455L137.156 295.4Z" fill="#FFA8A5"/>
<path d="M132.138 304.185C132.302 304.58 132.517 304.941 132.756 305.278C133.001 305.612 133.255 305.937 133.547 306.228C133.846 306.512 134.188 306.755 134.509 307.017C134.823 307.285 135.1 307.586 135.351 307.915L135.431 308.019L135.544 307.929C135.962 307.597 136.294 307.294 136.623 306.939C136.935 306.583 137.267 306.244 137.558 305.874C137.851 305.505 138.124 305.123 138.384 304.73C138.646 304.338 138.881 303.928 139.154 303.545L139.114 303.487C138.656 303.704 138.299 304.039 137.945 304.359C137.597 304.688 137.273 305.036 136.974 305.402C136.671 305.766 136.414 306.165 136.133 306.543C135.859 306.913 135.628 307.373 135.368 307.697L135.56 307.711C135.243 307.451 134.956 307.158 134.71 306.828C134.47 306.492 134.254 306.135 134.002 305.814C133.743 305.498 133.448 305.214 133.154 304.93C132.856 304.651 132.539 304.388 132.193 304.142L132.138 304.185Z" fill="#FFA8A5"/>
<path d="M141.368 310.966C140.932 311.478 140.48 311.95 140.018 312.399C139.554 312.851 139.057 313.245 138.573 313.679C138.079 314.099 137.519 314.475 136.886 314.66C136.257 314.858 135.59 314.883 134.946 314.876L135.234 315.078C135.12 314.536 134.952 314.025 134.775 313.509C134.6 312.993 134.377 312.492 134.108 312.014C133.841 311.534 133.525 311.075 133.151 310.661C132.771 310.259 132.332 309.881 131.807 309.693L131.772 309.753C132.169 310.113 132.476 310.528 132.742 310.972C133.012 311.411 133.241 311.876 133.467 312.344L134.113 313.77C134.325 314.248 134.512 314.745 134.698 315.228L134.788 315.462L134.986 315.432C135.671 315.324 136.321 315.092 136.956 314.869C137.583 314.624 138.229 314.409 138.846 314.093C139.47 313.787 139.995 313.314 140.436 312.787C140.876 312.259 141.235 311.659 141.431 310.998L141.368 310.966Z" fill="#FFA8A5"/>
<path d="M128.885 316.156C128.674 316.664 128.601 317.218 128.615 317.766C128.639 318.314 128.725 318.866 128.917 319.383C129.119 319.896 129.415 320.367 129.745 320.794L130.712 322.077L130.781 322.169L130.892 322.09C131.414 321.718 132.009 321.436 132.576 321.141C133.142 320.837 133.729 320.577 134.316 320.328C134.902 320.074 135.487 319.819 136.089 319.592C136.687 319.347 137.301 319.152 137.925 318.918L137.915 318.848C136.583 318.819 135.239 319.101 134.015 319.64C133.401 319.908 132.823 320.253 132.264 320.615C131.707 320.987 131.211 321.434 130.724 321.896L130.904 321.908C130.547 321.531 130.22 321.114 130.012 320.635C129.781 320.168 129.666 319.659 129.507 319.183C129.199 318.221 129.003 317.232 128.954 316.172L128.885 316.156Z" fill="#FFA8A5"/>
<path d="M119.09 355.59H133.867C135.239 355.59 136.404 354.404 136.611 352.799L138.95 334.621C139.207 332.633 137.906 330.842 136.206 330.842H116.75C115.051 330.842 113.75 332.633 114.007 334.621L116.346 352.799C116.552 354.404 117.718 355.59 119.09 355.59Z" fill="#488747"/>
<path d="M116.75 330.843H126.697C124.997 330.843 123.697 332.634 123.953 334.622L126.292 352.801C126.498 354.406 127.665 355.591 129.036 355.591H119.09C117.718 355.591 116.552 354.406 116.346 352.801L114.007 334.622C113.75 332.634 115.051 330.843 116.75 330.843Z" fill="#38295C"/>
<path d="M251.461 350.598H189.657C189.034 350.598 188.53 351.102 188.53 351.725V354.463C188.53 355.085 189.034 355.59 189.657 355.59H251.461V350.598Z" fill="#3A4278"/>
<path d="M267.366 354.042V355.155C267.366 355.395 267.171 355.59 266.93 355.59H251.362C250.877 355.59 250.485 355.198 250.485 354.714V351.47C250.485 350.947 250.94 350.539 251.461 350.598L266.979 353.609C267.199 353.634 267.366 353.82 267.366 354.042Z" fill="#488747"/>
<path d="M143.453 245.554H258.964C261.302 245.554 263.387 247.02 264.179 249.219L289.441 319.374C290.497 322.992 287.85 325.703 283.596 326.161C282.944 326.231 279.841 324.836 274.969 322.544H171.701C169.364 322.544 167.279 321.079 166.486 318.88L143.666 255.506C139.808 253.492 137.608 252.341 137.608 252.341C137.608 252.341 136.18 245.554 143.453 245.554Z" fill="#636A98"/>
<path d="M255.346 249.169H139.834C138.194 249.169 137.05 250.797 137.606 252.34L162.868 322.495C163.66 324.694 165.746 326.16 168.083 326.16H283.594C285.235 326.16 286.379 324.532 285.823 322.988L260.561 252.834C259.769 250.635 257.683 249.169 255.346 249.169Z" fill="#838BC0"/>
<path d="M229.269 326.161L224.142 307.144L204.708 326.161H229.269Z" fill="#261B41"/>
<path d="M255.432 314.487L253.947 310.361H255.814L257.299 314.487H255.432Z" fill="#261B41"/>
<path d="M251.5 314.487L250.015 310.361H251.882L253.367 314.487H251.5Z" fill="#261B41"/>
<path d="M247.569 314.487L246.083 310.361H247.951L249.436 314.487H247.569Z" fill="#261B41"/>
<path d="M243.636 314.487L242.151 310.361H244.018L245.503 314.487H243.636Z" fill="#261B41"/>
<path d="M187.789 314.487L186.304 310.361H188.171L189.657 314.487H187.789Z" fill="#261B41"/>
<path d="M183.857 314.487L182.372 310.361H184.239L185.724 314.487H183.857Z" fill="#261B41"/>
<path d="M179.926 314.487L178.44 310.361H180.307L181.793 314.487H179.926Z" fill="#261B41"/>
<path d="M175.994 314.487L174.509 310.361H176.376L177.861 314.487H175.994Z" fill="#261B41"/>
<path d="M190.263 348.81C191.402 345.533 205.225 300.93 205.225 300.93H222.968L224.141 307.142C224.141 307.142 212.244 345.533 211.104 348.81C211.017 349.06 210.934 349.311 210.857 349.562H210.858C209.815 352.767 212.566 352.752 215.664 352.752H246.956V355.59H215.664H194.823C188.553 355.59 189.122 352.087 190.263 348.81Z" fill="#636A98"/>
<path d="M222.969 300.93C222.969 300.93 209.146 345.534 208.007 348.811C206.866 352.088 206.297 355.59 212.567 355.59H191.725C185.455 355.59 186.025 352.088 187.165 348.811C188.305 345.534 202.127 300.93 202.127 300.93H222.969Z" fill="#838BC0"/>
<path d="M218.623 300.93C217.249 300.867 215.874 300.836 214.499 300.79C213.125 300.744 211.75 300.733 210.375 300.703C209.001 300.681 207.626 300.641 206.251 300.64L202.127 300.615L201.897 300.614L201.826 300.837C201.251 302.633 200.685 304.432 200.144 306.239L198.5 311.652C197.442 315.274 196.382 318.894 195.416 322.543C196.685 318.988 197.863 315.404 199.042 311.821L200.754 306.428C201.333 304.633 201.884 302.83 202.429 301.024L202.127 301.246L206.251 301.22C207.626 301.22 209.001 301.18 210.375 301.158C211.75 301.128 213.125 301.117 214.499 301.07C215.874 301.025 217.249 300.994 218.623 300.93Z" fill="#8475D5"/>
<path d="M97.7453 366.541H403.687C406.711 366.541 409.162 364.089 409.162 361.066C409.162 358.042 406.711 355.591 403.687 355.591H97.7453C94.7214 355.591 92.2705 358.042 92.2705 361.066C92.2705 364.089 94.7214 366.541 97.7453 366.541Z" fill="#A14F58"/>
<path d="M97.7453 366.541H403.687C406.711 366.541 409.162 364.089 409.162 361.066H92.2705C92.2705 364.089 94.7214 366.541 97.7453 366.541Z" fill="#713349"/>
<path d="M161.534 189.912C161.534 215.346 140.917 235.963 115.484 235.963C90.0508 235.963 69.4329 215.346 69.4329 189.912C69.4329 164.479 90.0508 143.861 115.484 143.861C140.917 143.861 161.534 164.479 161.534 189.912Z" fill="#AEBAEA"/>
<path d="M181.095 180.91C181.095 195.7 193.085 207.689 207.874 207.689C222.664 207.689 234.654 195.7 234.654 180.91C234.654 166.12 222.664 154.13 207.874 154.13C193.085 154.13 181.095 166.12 181.095 180.91Z" fill="#E6B851"/>
<path d="M194.663 191.393H221.086C222.299 191.393 223.282 190.41 223.282 189.197V172.622C223.282 171.41 222.299 170.426 221.086 170.426H194.663C193.451 170.426 192.467 171.41 192.467 172.622V189.197C192.467 190.41 193.451 191.393 194.663 191.393Z" fill="#6C83DC"/>
<path d="M194.663 191.393H221.086C222.299 191.393 223.282 190.41 223.282 189.197L207.875 179.508L192.467 189.197C192.467 190.41 193.451 191.393 194.663 191.393Z" fill="#C8DDF5"/>
<path d="M194.663 170.426H221.086C222.299 170.426 223.282 171.41 223.282 172.622L207.875 182.311L192.467 172.622C192.467 171.41 193.451 170.426 194.663 170.426Z" fill="#4371D7"/>
<path d="M370.953 219.445C370.953 234.235 382.942 246.225 397.732 246.225C412.522 246.225 424.512 234.235 424.512 219.445C424.512 204.655 412.522 192.666 397.732 192.666C382.942 192.666 370.953 204.655 370.953 219.445Z" fill="#E6B851"/>
<path d="M393.154 220.503C390.872 220.503 389.023 218.654 389.023 216.371C389.023 214.09 390.872 212.239 393.154 212.239C395.436 212.239 397.286 214.09 397.286 216.371C397.286 218.654 395.436 220.503 393.154 220.503ZM405.244 214.209H402.551C402.308 213.146 401.888 212.154 401.326 211.258L403.232 209.353C403.492 209.092 403.492 208.671 403.232 208.411L401.114 206.294C400.855 206.034 400.433 206.034 400.173 206.294L398.268 208.199C397.371 207.637 396.379 207.218 395.317 206.974V204.282C395.317 203.914 395.019 203.616 394.652 203.616H391.657C391.289 203.616 390.991 203.914 390.991 204.282V206.974C389.929 207.218 388.937 207.637 388.04 208.199L386.135 206.294C385.876 206.034 385.453 206.034 385.194 206.294L383.076 208.411C382.816 208.671 382.816 209.092 383.076 209.353L384.982 211.258C384.419 212.154 384.001 213.146 383.757 214.209H381.065C380.697 214.209 380.4 214.507 380.4 214.874V217.869C380.4 218.237 380.697 218.535 381.065 218.535H383.757C384.001 219.597 384.419 220.589 384.982 221.485L383.076 223.391C382.816 223.651 382.816 224.072 383.076 224.332L385.194 226.449C385.453 226.71 385.876 226.71 386.135 226.449L388.04 224.544C388.937 225.106 389.929 225.525 390.991 225.769V228.461C390.991 228.828 391.289 229.126 391.657 229.126H394.652C395.019 229.126 395.317 228.828 395.317 228.461V225.769C396.379 225.525 397.371 225.106 398.268 224.544L400.173 226.449C400.433 226.71 400.855 226.71 401.114 226.449L403.232 224.332C403.492 224.072 403.492 223.651 403.232 223.391L401.326 221.485C401.888 220.589 402.308 219.597 402.551 218.535H405.244C405.612 218.535 405.909 218.237 405.909 217.869V214.874C405.909 214.507 405.612 214.209 405.244 214.209Z" fill="#6C83DC"/>
<path d="M393.154 219.884C391.214 219.884 389.642 218.311 389.642 216.371C389.642 214.432 391.214 212.86 393.154 212.86C395.093 212.86 396.666 214.432 396.666 216.371C396.666 218.311 395.093 219.884 393.154 219.884ZM393.154 210.62C389.977 210.62 387.402 213.195 387.402 216.371C387.402 219.548 389.977 222.123 393.154 222.123C396.33 222.123 398.906 219.548 398.906 216.371C398.906 213.195 396.33 210.62 393.154 210.62Z" fill="#4371D7"/>
<path d="M410.567 229.219C409.401 229.219 408.455 228.274 408.455 227.108C408.455 225.942 409.401 224.998 410.567 224.998C411.732 224.998 412.677 225.942 412.677 227.108C412.677 228.274 411.732 229.219 410.567 229.219ZM416.743 226.003H415.367C415.243 225.46 415.029 224.953 414.742 224.496L415.715 223.522C415.847 223.39 415.847 223.174 415.715 223.042L414.633 221.96C414.501 221.827 414.285 221.827 414.153 221.96L413.178 222.933C412.721 222.646 412.214 222.432 411.672 222.308V220.932C411.672 220.744 411.519 220.593 411.331 220.593H409.801C409.614 220.593 409.461 220.744 409.461 220.932V222.308C408.919 222.432 408.412 222.646 407.954 222.933L406.981 221.96C406.847 221.827 406.632 221.827 406.499 221.96L405.418 223.042C405.285 223.174 405.285 223.39 405.418 223.522L406.391 224.496C406.105 224.953 405.89 225.46 405.766 226.003H404.39C404.202 226.003 404.05 226.156 404.05 226.343V227.873C404.05 228.061 404.202 228.213 404.39 228.213H405.766C405.89 228.755 406.105 229.262 406.391 229.721L405.418 230.694C405.285 230.827 405.285 231.042 405.418 231.175L406.499 232.257C406.632 232.389 406.847 232.389 406.981 232.257L407.954 231.283C408.412 231.57 408.919 231.784 409.461 231.909V233.284C409.461 233.472 409.614 233.625 409.801 233.625H411.331C411.519 233.625 411.672 233.472 411.672 233.284V231.909C412.214 231.784 412.721 231.57 413.178 231.283L414.153 232.257C414.285 232.389 414.501 232.389 414.633 232.257L415.715 231.175C415.847 231.042 415.847 230.827 415.715 230.694L414.742 229.721C415.029 229.262 415.243 228.755 415.367 228.213H416.743C416.93 228.213 417.082 228.061 417.082 227.873V226.343C417.082 226.156 416.93 226.003 416.743 226.003Z" fill="#6C83DC"/>
<path d="M410.566 228.902C409.575 228.902 408.772 228.099 408.772 227.108C408.772 226.117 409.575 225.314 410.566 225.314C411.557 225.314 412.36 226.117 412.36 227.108C412.36 228.099 411.557 228.902 410.566 228.902ZM410.566 224.17C408.944 224.17 407.628 225.485 407.628 227.108C407.628 228.731 408.944 230.046 410.566 230.046C412.189 230.046 413.504 228.731 413.504 227.108C413.504 225.485 412.189 224.17 410.566 224.17Z" fill="#4371D7"/>
<path d="M250.14 143.593C250.14 158.383 262.13 170.373 276.92 170.373C291.709 170.373 303.699 158.383 303.699 143.593C303.699 128.803 291.709 116.813 276.92 116.813C262.13 116.813 250.14 128.803 250.14 143.593Z" fill="#E3E4EB"/>
<path d="M261.512 136.521H292.327V133.124C292.327 131.954 291.379 131.006 290.209 131.006H263.629C262.46 131.006 261.512 131.954 261.512 133.124V136.521Z" fill="#4371D7"/>
<path d="M278.864 142.469H280.518C280.799 142.469 281.026 142.242 281.026 141.961V140.307C281.026 140.027 280.799 139.8 280.518 139.8H278.864C278.584 139.8 278.356 140.027 278.356 140.307V141.961C278.356 142.242 278.584 142.469 278.864 142.469Z" fill="#6C83DC"/>
<path d="M272.514 142.469H274.167C274.448 142.469 274.675 142.242 274.675 141.961V140.307C274.675 140.027 274.448 139.8 274.167 139.8H272.514C272.233 139.8 272.005 140.027 272.005 140.307V141.961C272.005 142.242 272.233 142.469 272.514 142.469Z" fill="#6C83DC"/>
<path d="M266.16 142.469H267.814C268.095 142.469 268.322 142.242 268.322 141.961V140.307C268.322 140.027 268.095 139.8 267.814 139.8H266.16C265.88 139.8 265.652 140.027 265.652 140.307V141.961C265.652 142.242 265.88 142.469 266.16 142.469Z" fill="#6C83DC"/>
<path d="M285.217 147.939H286.87C287.151 147.939 287.378 147.711 287.378 147.431V145.777C287.378 145.496 287.151 145.27 286.87 145.27H285.217C284.936 145.27 284.709 145.496 284.709 145.777V147.431C284.709 147.711 284.936 147.939 285.217 147.939Z" fill="#6C83DC"/>
<path d="M278.864 147.939H280.518C280.799 147.939 281.026 147.711 281.026 147.431V145.777C281.026 145.496 280.799 145.27 280.518 145.27H278.864C278.584 145.27 278.356 145.496 278.356 145.777V147.431C278.356 147.711 278.584 147.939 278.864 147.939Z" fill="#6C83DC"/>
<path d="M272.514 147.938H274.167C274.448 147.938 274.675 147.711 274.675 147.43V145.777C274.675 145.496 274.448 145.269 274.167 145.269H272.514C272.233 145.269 272.005 145.496 272.005 145.777V147.43C272.005 147.711 272.233 147.938 272.514 147.938Z" fill="#6C83DC"/>
<path d="M266.16 147.938H267.814C268.095 147.938 268.322 147.711 268.322 147.43V145.777C268.322 145.496 268.095 145.269 267.814 145.269H266.16C265.88 145.269 265.652 145.496 265.652 145.777V147.43C265.652 147.711 265.88 147.938 266.16 147.938Z" fill="#6C83DC"/>
<path d="M285.217 153.409H286.87C287.151 153.409 287.378 153.181 287.378 152.9V151.247C287.378 150.966 287.151 150.739 286.87 150.739H285.217C284.936 150.739 284.709 150.966 284.709 151.247V152.9C284.709 153.181 284.936 153.409 285.217 153.409Z" fill="#6C83DC"/>
<path d="M278.864 153.409H280.518C280.799 153.409 281.026 153.181 281.026 152.9V151.247C281.026 150.966 280.799 150.739 280.518 150.739H278.864C278.584 150.739 278.356 150.966 278.356 151.247V152.9C278.356 153.181 278.584 153.409 278.864 153.409Z" fill="#6C83DC"/>
<path d="M272.514 153.409H274.167C274.448 153.409 274.675 153.181 274.675 152.9V151.247C274.675 150.966 274.448 150.739 274.167 150.739H272.514C272.233 150.739 272.005 150.966 272.005 151.247V152.9C272.005 153.181 272.233 153.409 272.514 153.409Z" fill="#6C83DC"/>
<path d="M380.36 157.355C380.36 172.145 368.371 184.135 353.581 184.135C338.791 184.135 326.802 172.145 326.802 157.355C326.802 142.566 338.791 130.576 353.581 130.576C368.371 130.576 380.36 142.566 380.36 157.355Z" fill="#FF7571"/>
<path d="M355.119 172.983V170.478C355.119 170.012 354.741 169.635 354.276 169.635H352.887C352.421 169.635 352.043 170.012 352.043 170.478V172.983C344.599 172.259 338.678 166.338 337.954 158.894H340.458C340.924 158.894 341.302 158.516 341.302 158.051V156.661C341.302 156.195 340.924 155.818 340.458 155.818H337.954C338.678 148.374 344.599 142.452 352.043 141.728V144.233C352.043 144.699 352.421 145.076 352.887 145.076H354.276C354.741 145.076 355.119 144.699 355.119 144.233V141.728C362.563 142.452 368.485 148.374 369.208 155.818H366.704C366.238 155.818 365.86 156.195 365.86 156.661V158.051C365.86 158.516 366.238 158.894 366.704 158.894H369.208C368.485 166.338 362.563 172.259 355.119 172.983ZM353.581 139.014C343.451 139.014 335.239 147.225 335.239 157.356C335.239 167.486 343.451 175.698 353.581 175.698C363.711 175.698 371.923 167.486 371.923 157.356C371.923 147.225 363.711 139.014 353.581 139.014Z" fill="#CC3834"/>
<path d="M341.364 135.279C341.364 132.98 341.984 131.223 343.224 130.009C344.296 128.937 345.704 128.401 347.448 128.401C349.049 128.401 350.412 129.002 351.536 130.203C352.672 131.404 353.241 132.806 353.241 134.407C353.241 136.061 352.873 137.656 352.136 139.193C351.736 140.045 350.799 141.511 349.327 143.591C348.927 144.159 348.332 145.044 347.544 146.245L346.886 147.233C346.46 147.879 346.137 148.389 345.917 148.764C345.814 148.945 345.762 149.055 345.762 149.093L352.95 149.113V152.697H341.306V149.345C341.306 149.268 341.577 148.822 342.12 148.008C342.365 147.634 342.643 147.22 342.953 146.768L343.902 145.393C344.457 144.631 345.329 143.41 346.518 141.731C347.641 140.155 348.481 138.728 349.036 137.449C349.488 136.403 349.714 135.428 349.714 134.524C349.714 133.787 349.508 133.161 349.094 132.644C348.642 132.102 348.061 131.83 347.351 131.83C346.33 131.83 345.607 132.418 345.181 133.594C345.039 133.981 344.968 134.446 344.968 134.989V135.919H341.364V135.279ZM353.427 143.785L359.898 128.401H363.56V143.785H365.904V147.466H363.56V152.697H359.898V147.466H353.427V143.785ZM359.898 143.785V136.209L356.876 143.785H359.898ZM351.439 162.89H354.422L344.29 189.453H341.306L351.439 162.89ZM367.948 164.401V168.082L362.814 188.697H359.23L364.364 168.082H356.944V164.401H367.948Z" fill="#D6C9DB"/>
<path d="M186.825 263.425C187.7 267.819 183.632 271.725 182.358 272.458C181.084 273.19 172.537 276.607 167.402 276.729C162.267 276.851 155.491 265.989 158.264 264.769C161.038 263.548 179.931 262.206 182.006 262.206C184.081 262.206 186.825 263.425 186.825 263.425Z" fill="#FFC6C8"/>
<path d="M173.36 261.107C171.119 274.288 165.796 284.54 164.135 284.724C162.475 284.906 146.518 279.414 142.119 277.4C137.721 275.387 143.47 244.451 146.208 244.996C148.946 245.541 154.948 251.484 159.904 254.333C164.859 257.184 173.36 261.107 173.36 261.107Z" fill="#F9CA45"/>
<path d="M147.077 266.587C148.616 269.225 161.296 275.911 168.279 278.348C166.553 282.241 164.927 284.636 164.135 284.723C162.713 284.88 150.811 280.876 144.658 278.457C145.174 273.559 147.077 266.587 147.077 266.587Z" fill="#C7A237"/>
<path d="M186.843 262.816C186.969 268.046 182.259 268.797 176.62 267.454C170.982 266.111 161.775 253.418 157.677 247.682C153.579 241.946 145.932 231.724 144.351 230.81C142.77 229.894 139.143 229.408 136.04 224.25C132.938 219.093 137.019 208.291 138.485 207.01C139.951 205.728 152.516 210.007 153.976 212.17C155.436 214.333 152.942 225.958 153.384 227.422C153.827 228.887 164.52 240.848 169.19 243.777C173.858 246.706 186.752 259.033 186.843 262.816Z" fill="#FFC6C8"/>
<path d="M144.921 215.64C143.443 214.908 143.086 211.582 144.016 212.168C144.946 212.755 146.572 212.742 148.772 212.711C150.971 212.68 151.874 212.491 151.874 212.491C151.874 212.491 152.099 213.932 152.088 215.113C152.088 215.113 146.399 216.373 144.921 215.64Z" fill="#FF8B8C"/>
<path d="M135.136 216.396C136.032 214.73 136.724 213.467 136.724 213.467L145.367 221.787C147.731 219.737 150.623 217.867 150.623 217.867L151.384 219.223C149.985 221.59 148.767 226.594 148.739 227.814C148.739 227.814 147.412 229.279 146.671 229.4C146.671 229.4 155.917 244.046 161.862 251.247C167.771 258.406 171.819 264.597 174.606 266.587C168.985 263.346 161.318 252.778 157.676 247.682C153.578 241.946 145.931 231.724 144.35 230.809C142.77 229.894 139.143 229.408 136.04 224.251C134.809 222.205 134.718 219.272 135.136 216.396Z" fill="#FF8B8C"/>
<path d="M153.127 217.231C153.022 218.085 144.433 225.531 143.533 226.385C143.466 226.449 142.795 226.547 142.611 226.385C140.326 224.378 130.352 206.265 130.173 205.611C130.007 205.001 136.629 198.771 138.651 197.104C138.926 196.877 140.061 197.015 140.247 197.29C142.287 200.312 153.262 216.129 153.127 217.231Z" fill="#050233"/>
<path d="M152.204 217.231C152.099 218.085 143.51 225.53 142.611 226.385C141.711 227.239 129.443 206.317 129.251 205.611C129.084 205.001 136.456 198.872 138.478 197.205C138.754 196.978 139.137 197.014 139.324 197.29C141.364 200.311 152.339 216.129 152.204 217.231Z" fill="#211E88"/>
<path d="M150.758 216.007C150.66 216.806 142.625 223.771 141.784 224.57C140.943 225.37 129.465 205.797 129.285 205.136C129.13 204.566 136.027 198.832 137.918 197.272C138.176 197.06 138.535 197.093 138.709 197.352C140.618 200.178 150.885 214.976 150.758 216.007Z" fill="#00B1FA"/>
<path d="M145.607 205.798C144.277 204.996 142.644 202.281 142.497 201.365C142.35 200.45 142.441 199.626 143.156 199.443C143.871 199.26 146.072 202.128 147.17 202.982C148.267 203.837 149.603 205.606 149.059 206.797C148.514 207.986 146.076 207.529 145.815 207.346C145.554 207.163 145.607 205.798 145.607 205.798Z" fill="#FFC6C8"/>
<path d="M142.743 199.684C142.322 200.725 145.069 204.902 147.479 206.104L146.583 207.127C146.583 207.127 146.177 207.038 145.654 206.914C145.583 206.451 145.606 205.799 145.606 205.799C144.277 204.997 142.643 202.281 142.496 201.366C142.385 200.672 142.413 200.034 142.743 199.684Z" fill="#FF8B8C"/>
<path d="M148.7 210.018C146.411 208.795 144.616 208.932 143.372 208.429C142.126 207.925 141.9 206.003 142.748 205.683C143.595 205.362 148.752 206.186 150.082 206.781C151.412 207.376 152.047 210.117 152.047 210.117L148.7 210.018Z" fill="#FFC6C8"/>
<path d="M147.697 208.592C148.992 208.836 149.436 208.592 149.436 208.592C149.399 209.097 149.877 209.349 150.414 210.068L148.699 210.018C146.411 208.795 144.615 208.932 143.371 208.429C142.803 208.199 142.459 207.674 142.32 207.141C142.874 208.195 146.409 208.349 147.697 208.592Z" fill="#FF8B8C"/>
<path d="M153.976 212.17C152.755 213.859 146.767 213.127 145.559 212.944C144.352 212.761 143.595 211.999 143.718 211.23C143.967 209.679 151.879 209.954 152.533 210.198C153.186 210.442 153.976 212.17 153.976 212.17Z" fill="#FFC6C8"/>
<path d="M143.762 211.604C144.58 212.417 146.547 212.88 148.693 213.053C150.552 213.203 151.62 213.131 151.867 213.11C149.61 213.469 146.408 213.073 145.56 212.944C144.552 212.792 143.892 212.231 143.762 211.604Z" fill="#FF8B8C"/>
<path d="M125.952 235.844C138.663 242.312 140.748 242.061 146.208 244.995C151.667 247.929 150.042 278.804 149.696 283.564C149.349 288.324 148.034 307.241 148.759 312.367C149.484 317.493 152.309 336.532 153.561 339.461C154.812 342.39 157.198 347.334 153.507 350.262C149.816 353.191 142.005 355.206 125.047 354.107C108.089 353.008 89.809 342.574 89.0002 341.109C88.1913 339.645 97.1066 312.733 97.4796 307.607C97.8526 302.481 98.8647 298.636 99.4043 296.257C99.9433 293.876 94.5487 282.709 93.6866 275.569C92.8246 268.43 85.0675 248.734 86.539 245.126C88.01 241.518 101.52 237.499 110.72 232.911C119.92 228.323 125.952 235.844 125.952 235.844Z" fill="#F9CA45"/>
<path d="M138.552 243.849C136.46 250.726 132.2 256.927 126.53 261.347C119.646 259.659 112.648 256.626 107.011 252.328C113.31 256.968 120.18 260.871 127.536 263.536C133.747 258.448 137.434 251.8 138.552 243.849Z" fill="#C7A237"/>
<path d="M135.959 240.576C133.518 239.534 130.381 238.097 125.953 235.844C125.953 235.844 119.921 228.323 110.721 232.911C107.529 234.503 103.818 236.026 100.271 237.488C105.751 246.812 114.631 254.106 124.882 257.574C130.287 253.317 134.173 247.219 135.959 240.576Z" fill="#FFC6C8"/>
<path opacity="0.2" d="M89.0005 341.109C88.1916 339.645 97.1069 312.733 97.4799 307.607C97.8529 302.481 98.8649 298.636 99.404 296.257C99.9436 293.877 94.549 282.709 93.6869 275.57C93.5376 274.329 93.1761 272.704 92.6948 270.855L98.4259 266.587C101.787 275.962 103.883 292.438 107.068 296.465C110.254 300.493 118.189 302.14 118.189 302.14C118.189 302.14 110.351 303.971 106.934 303.239C106.934 303.239 103.285 317.702 103.243 324.841C103.202 331.981 103.865 342.782 103.949 344.247C103.981 344.793 103.86 346.7 103.696 348.873C95.4841 345.622 89.4568 341.936 89.0005 341.109Z" fill="black"/>
<path d="M112.163 219.905C112.033 227.545 111.528 232.793 109.836 234.258C109.836 234.258 112.747 246.934 124.369 245.851C128.302 245.485 127.927 238.895 125.952 235.844L127.122 226.474L112.163 219.905Z" fill="#FFC6C8"/>
<path d="M110.72 232.912C111.715 230.569 112.059 226.003 112.163 219.905L127.122 226.474L126.372 232.483C123.72 233.673 110.72 232.912 110.72 232.912Z" fill="#FF8B8C"/>
<path d="M70.97 281.69C68.3935 285.23 64.9472 294.017 66.2406 298.045C67.534 302.072 80.8742 320.013 86.9758 326.726C93.0781 333.438 94.4625 334.537 95.5232 336.734C96.5839 338.931 101.782 347.992 103.147 349.366C104.512 350.738 106.97 350.922 106.97 350.922C106.97 350.922 108.808 352.935 112.327 352.569C112.327 352.569 115.392 354.674 117.824 355.223C117.824 355.223 118.627 356.778 119.44 356.916C120.254 357.054 121.289 355.407 119.79 352.111C118.291 348.816 115.828 347.443 115.432 345.338C115.036 343.233 113.13 338.937 113.13 338.937C113.13 338.937 117.409 343.324 120.043 343.599C122.678 343.874 123.032 342.317 121.586 341.036C120.14 339.754 118.266 337.832 116.524 335.36C114.781 332.889 112.613 331.242 109.259 330.784C105.906 330.326 103.553 329.96 102.684 329.319C101.815 328.679 97.4306 322.455 94.4336 315.741C91.4373 309.028 88.7531 300.451 81.137 292.919L84.4929 287.06L70.97 281.69Z" fill="#FFC6C8"/>
<path d="M117.711 354.804C117.062 352.948 115.869 351.364 114.556 349.955L114.035 349.443C113.881 349.283 113.61 349.082 113.551 348.988C113.288 348.653 113.061 348.212 112.808 347.815C112.325 346.992 111.855 346.153 111.321 345.345C111.576 346.295 111.918 347.203 112.301 348.098C112.489 348.553 112.694 348.976 112.981 349.426C113.203 349.721 113.347 349.783 113.518 349.974L114.008 350.48C114.667 351.156 115.291 351.866 115.921 352.574C116.546 353.288 117.13 354.031 117.711 354.804Z" fill="#FF8B8C"/>
<path d="M112.185 351.935C111.68 350.949 111.082 350.095 110.548 349.197C109.989 348.311 109.493 347.422 108.984 346.444C108.929 347.595 109.354 348.68 109.915 349.612C110.501 350.537 111.247 351.352 112.185 351.935Z" fill="#FF8B8C"/>
<path d="M109.506 352.326C107.845 351.846 106.971 350.921 106.971 350.921C106.971 350.921 104.512 350.737 103.148 349.365C102.59 348.804 101.39 346.953 100.096 344.817C100.124 344.851 101.658 346.518 102.76 347.893C104.313 349.83 106.542 349.189 106.542 349.189L106.244 347.404C106.244 347.404 107.727 351.456 109.506 352.326Z" fill="#FF8B8C"/>
<path d="M66.1855 293.569C66.2579 295.239 66.2778 296.568 68.7556 300.951C71.5443 305.883 88.3032 326.672 91.959 330.516C95.6148 334.36 95.5065 334.605 97.6703 340.679C96.6935 338.962 95.8783 337.465 95.5245 336.734C94.4644 334.537 93.0793 333.438 86.9771 326.725C80.8755 320.013 67.5353 302.072 66.2419 298.044C65.8663 296.874 65.899 295.297 66.1855 293.569Z" fill="#FF8B8C"/>
<path d="M79.3214 288.765L77.9601 291.034C77.9601 291.034 79.8021 291.532 81.1384 292.918L83.7951 288.41L79.3214 288.765Z" fill="#FF8B8C"/>
<path d="M95.3818 276.355C98.8819 269.474 100.283 258.3 97.1238 252.419C93.9647 246.537 88.0022 244.42 86.5396 245.126C85.0763 245.832 81.1154 255.006 77.3961 259.241C73.6768 263.475 63.5201 275.355 63.2125 276.355C62.9042 277.354 70.553 285.424 84.9398 291.351C86.6524 292.057 95.3818 276.355 95.3818 276.355Z" fill="#F9CA45"/>
<g opacity="0.2">
<path d="M84.7099 281.69L82.4148 286.396C82.4148 286.396 93.7207 275.062 98.4142 266.605C97.8457 270.133 96.7869 273.591 95.3807 276.355C95.3807 276.355 86.6519 292.058 84.9387 291.351C82.4769 290.337 80.2286 289.259 78.1674 288.166L84.7099 281.69Z" fill="black"/>
</g>
<path d="M127.986 220.589C127.209 217.44 127.225 214.219 127.038 210.999C126.897 208.591 126.775 206.387 124.589 204.946C122.992 203.894 120.989 203.687 119.11 203.925C114.059 204.566 112.973 209.488 113.36 214.148C113.656 217.715 115.049 221.14 116.433 224.421C114.575 224.339 112.039 223.365 110.93 221.819C111.428 223.854 112.372 225.723 113.847 227.161C108.464 227.069 103.468 223.547 100.617 218.816C97.7658 214.087 96.8621 208.311 97.1659 202.744C97.5261 196.137 99.586 189.515 103.673 184.428C111.892 174.197 127.726 173.005 137.369 181.797C140.684 184.819 143.089 188.871 144.291 193.265C145.872 199.041 145.84 205.238 144.608 211.081C144.098 213.5 143.864 215.595 143.624 218.017C143.55 218.769 142.639 227.489 143.166 227.457C139.766 227.663 135.859 226.977 133.556 224.378C134.588 226.163 135.48 227.883 136.512 229.667C132.219 228.953 129.063 224.953 127.986 220.589Z" fill="#A072AE"/>
<path d="M110.342 208.705C108.823 207.807 106.998 207.32 105.589 208.749C103.513 210.854 106.462 220.648 110.937 218.269C110.937 218.269 117.418 227.331 122.173 229.894C126.93 232.457 130.318 231.175 132.099 229.344C133.881 227.514 139.955 220.004 141.047 212.044C141.437 209.206 141.02 203.623 141.106 202.433C141.373 198.772 142.76 195.766 139.872 192.892C136.954 189.99 132.913 188.234 128.8 188.088C123.619 187.905 118.441 190.234 115.01 194.12C111.219 198.414 110.562 203.263 110.342 208.705Z" fill="#FFC6C8"/>
<path d="M106.325 211.426C106.712 209.632 108.242 209.278 109.381 210.529C110.548 211.811 110.744 215.87 110.444 216.468C110.144 217.066 108.139 217.023 107.759 215.784C107.38 214.545 108.547 213.768 109.674 214.135C109.674 214.135 109.989 212.327 109.067 211.162C108.146 209.998 107.187 210.444 106.952 210.742C106.716 211.042 106.325 211.426 106.325 211.426Z" fill="#FF8B8C"/>
<path d="M118.713 203.488C119.146 203.085 119.606 202.71 120.088 202.354C120.573 202.004 121.09 201.69 121.64 201.433C122.186 201.177 122.757 200.901 123.361 200.854C123.96 200.801 124.561 200.849 125.109 201.085L125.101 201.167C124.808 201.284 124.53 201.359 124.255 201.439L123.448 201.662C122.924 201.816 122.38 201.863 121.847 202.041C121.319 202.216 120.797 202.442 120.284 202.7C119.765 202.953 119.264 203.253 118.759 203.553L118.713 203.488Z" fill="#471052"/>
<path d="M138.96 201.433C138.469 201.174 137.951 200.984 137.411 200.871C136.875 200.751 136.325 200.69 135.774 200.676C135.22 200.664 134.669 200.778 134.122 200.774C133.57 200.776 133.016 200.792 132.41 200.731L132.393 200.652C132.911 200.276 133.501 200.073 134.097 199.958C134.698 199.836 135.299 199.935 135.879 200.022C136.462 200.107 137.03 200.258 137.562 200.479C138.09 200.707 138.592 200.99 139.011 201.365L138.96 201.433Z" fill="#471052"/>
<path d="M124.148 206.707C124.128 205.932 123.738 205.342 123.277 205.386C122.816 205.432 122.459 206.097 122.48 206.871C122.5 207.645 122.89 208.236 123.351 208.19C123.812 208.146 124.168 207.481 124.148 206.707Z" fill="#471052"/>
<path d="M136.375 205.729C136.355 204.954 136.033 204.356 135.656 204.394C135.28 204.431 134.991 205.088 135.011 205.863C135.031 206.637 135.354 207.235 135.73 207.198C136.107 207.16 136.396 206.503 136.375 205.729Z" fill="#471052"/>
<path d="M127.978 214.233C129.038 214.97 130.6 214.954 131.754 214.195C131.623 214.791 131.356 215.373 130.776 215.585C130.195 215.796 129.554 215.734 129.02 215.489C128.487 215.245 128.315 214.708 127.978 214.233Z" fill="#FF8B8C"/>
<path d="M123.735 218.775C126.288 218.816 132.427 218.345 134.429 218.061C133.64 220.647 131.57 223.203 128.679 223.204C126.077 223.206 124.358 221.067 123.735 218.775Z" fill="#C47E75"/>
<path d="M126.077 222.359C127.092 222.047 128.125 222.207 128.541 222.336C128.541 222.336 129.892 221.391 131.854 222.012C130.961 222.732 129.899 223.203 128.679 223.204C127.675 223.205 126.806 222.882 126.077 222.359Z" fill="#FF8485"/>
<path d="M132.696 220.225C130.111 221.031 127.289 220.799 124.855 219.921C124.838 219.539 124.809 219.155 124.78 218.77C127.304 218.716 131.389 218.411 133.576 218.167C133.388 218.882 133.104 219.581 132.696 220.225Z" fill="white"/>
<path d="M112.895 200.28C117.06 200.102 121.192 199.185 125.041 197.584C125.774 195.889 125.799 194.386 125.908 192.544C126.955 194.464 127.577 196.613 127.685 198.797C130.11 198.639 132.547 198.509 134.972 198.352C135.652 196.43 135.734 194.451 135.627 192.415C136.446 194.327 136.858 196.735 137.137 198.796C138.602 198.276 140.457 199.035 141.986 199.309C143.882 195.087 143.757 187.437 139.748 184.235C135.843 181.116 129.06 180.267 124.288 180.958C114.136 182.428 106.157 190.856 106.787 201.358C107.147 207.349 110.152 213.014 114.462 217.191C111.899 212.08 111.391 205.796 112.895 200.28Z" fill="#A072AE"/>
<path d="M413.411 135.26C406.898 135.26 401.619 140.538 401.619 147.052C401.619 150.566 403.156 153.723 405.598 155.886C407.682 157.725 410.417 158.844 413.411 158.844C416.41 158.844 419.144 157.725 421.224 155.882C423.666 153.723 425.203 150.566 425.203 147.052C425.203 140.538 419.924 135.26 413.411 135.26Z" fill="#CBD5FC"/>
<path d="M420.3 154.925C419.697 154.475 418.601 153.728 417.408 153.175C416.215 152.627 415.514 151.341 415.704 150.046C415.704 150.028 415.709 150.009 415.713 149.986C415.713 149.986 418.429 148.147 418.053 146.355C418.053 146.355 418.137 146.36 418.262 146.351C419.46 146.239 419.534 144.457 418.35 144.266C418.341 144.266 418.327 144.262 418.318 144.262L418.281 144.067C418.643 142.799 419.525 138.96 416.855 139.331C416.855 139.331 414.938 136.161 410.885 137.688C406.828 139.211 407.886 142.846 407.886 142.846L408.387 144.294C407.296 144.563 407.399 146.249 408.559 146.355C408.685 146.365 408.773 146.36 408.773 146.36C408.392 148.152 411.108 149.99 411.108 149.99C411.113 150.014 411.113 150.032 411.117 150.051C411.303 151.346 410.602 152.632 409.413 153.18C408.216 153.732 407.125 154.484 406.521 154.93C406.159 155.195 405.839 155.515 405.593 155.891C407.682 157.725 410.416 158.844 413.411 158.844C416.41 158.844 419.144 157.725 421.224 155.882C420.982 155.51 420.662 155.19 420.3 154.925Z" fill="#819FDE"/>
<path d="M269.48 13.873C260.476 13.873 253.179 21.1698 253.179 30.1736C253.179 35.0317 255.303 39.3956 258.679 42.3862C261.56 44.9276 265.34 46.4742 269.48 46.4742C273.625 46.4742 277.405 44.9276 280.28 42.3798C283.656 39.3956 285.78 35.0317 285.78 30.1736C285.78 21.1698 278.483 13.873 269.48 13.873Z" fill="#CBD5FC"/>
<path d="M279.003 41.0576C278.169 40.4351 276.655 39.4019 275.005 38.6382C273.356 37.8809 272.387 36.1033 272.65 34.3128C272.65 34.2871 272.656 34.2614 272.663 34.2293C272.663 34.2293 276.417 31.688 275.897 29.2108C275.897 29.2108 276.013 29.2172 276.186 29.2044C277.842 29.0504 277.945 26.586 276.308 26.3229C276.295 26.3229 276.276 26.3165 276.263 26.3165L276.212 26.047C276.712 24.295 277.932 18.9877 274.242 19.5011C274.242 19.5011 271.591 15.1179 265.989 17.2293C260.38 19.3342 261.843 24.3591 261.843 24.3591L262.536 26.3614C261.028 26.7336 261.169 29.0632 262.773 29.2108C262.947 29.2237 263.069 29.2172 263.069 29.2172C262.542 31.6944 266.297 34.2358 266.297 34.2358C266.303 34.2678 266.303 34.2935 266.309 34.3192C266.566 36.1097 265.597 37.8873 263.954 38.6446C262.299 39.4083 260.79 40.448 259.956 41.064C259.456 41.4298 259.013 41.8726 258.673 42.3925C261.561 44.9274 265.34 46.474 269.48 46.474C273.625 46.474 277.405 44.9274 280.28 42.3796C279.947 41.8662 279.504 41.4234 279.003 41.0576Z" fill="#819FDE"/>
<path d="M49.2483 127.63C53.0797 127.63 56.1847 130.735 56.1847 134.567C56.1847 136.634 55.2808 138.491 53.8443 139.764C52.6182 140.845 51.0097 141.503 49.2483 141.503C47.4841 141.503 45.8756 140.845 44.6522 139.761C43.2158 138.491 42.3119 136.634 42.3119 134.567C42.3119 130.735 45.4169 127.63 49.2483 127.63Z" fill="#CBD5FC"/>
<path d="M45.196 139.198C45.551 138.933 46.1955 138.494 46.8973 138.169C47.5992 137.847 48.0115 137.09 47.8996 136.328C47.8996 136.317 47.8968 136.306 47.8941 136.293C47.8941 136.293 46.2965 135.211 46.5178 134.157C46.5178 134.157 46.4686 134.16 46.3949 134.154C45.6903 134.089 45.6466 133.04 46.343 132.928C46.3484 132.928 46.3566 132.926 46.3621 132.926L46.3839 132.811C46.1709 132.065 45.6521 129.807 47.2223 130.025C47.2223 130.025 48.3502 128.16 50.7342 129.059C53.121 129.954 52.4984 132.093 52.4984 132.093L52.2034 132.945C52.8452 133.103 52.7851 134.094 52.1024 134.157C52.0287 134.163 51.9768 134.16 51.9768 134.16C52.2007 135.214 50.6031 136.295 50.6031 136.295C50.6004 136.309 50.6004 136.32 50.5977 136.331C50.4884 137.093 50.9008 137.849 51.5999 138.172C52.3045 138.497 52.9462 138.939 53.3012 139.201C53.5142 139.357 53.7027 139.545 53.8474 139.766C52.6185 140.845 51.01 141.503 49.2486 141.503C47.4845 141.503 45.876 140.845 44.6526 139.761C44.7946 139.542 44.983 139.354 45.196 139.198Z" fill="#819FDE"/>
<path d="M124.508 368.324C116.654 368.324 110.289 374.689 110.289 382.543C110.289 386.781 112.142 390.588 115.087 393.197C117.6 395.414 120.898 396.763 124.508 396.763C128.125 396.763 131.422 395.414 133.93 393.191C136.875 390.588 138.728 386.781 138.728 382.543C138.728 374.689 132.363 368.324 124.508 368.324Z" fill="#CBD5FC"/>
<path d="M132.817 392.038C132.09 391.495 130.768 390.594 129.33 389.927C127.891 389.267 127.045 387.716 127.275 386.154C127.275 386.132 127.281 386.109 127.286 386.081C127.286 386.081 130.561 383.865 130.108 381.704C130.108 381.704 130.208 381.709 130.36 381.698C131.804 381.564 131.894 379.414 130.466 379.184C130.455 379.184 130.438 379.179 130.427 379.179L130.382 378.944C130.819 377.415 131.882 372.785 128.663 373.233C128.663 373.233 126.351 369.41 121.464 371.252C116.571 373.088 117.847 377.471 117.847 377.471L118.452 379.218C117.136 379.543 117.26 381.575 118.659 381.704C118.81 381.715 118.917 381.709 118.917 381.709C118.458 383.87 121.733 386.087 121.733 386.087C121.738 386.115 121.738 386.137 121.744 386.16C121.968 387.722 121.122 389.272 119.689 389.933C118.245 390.599 116.929 391.506 116.202 392.044C115.765 392.363 115.379 392.749 115.082 393.202C117.601 395.414 120.899 396.763 124.509 396.763C128.126 396.763 131.423 395.414 133.931 393.191C133.64 392.743 133.254 392.357 132.817 392.038Z" fill="#819FDE"/>
<circle opacity="0.4" cx="264.971" cy="236.532" r="206.205" stroke="#8A8FB9"/>
<circle opacity="0.4" cx="264.624" cy="236.879" r="198.922" stroke="#8A8FB9"/>
<circle cx="467.861" cy="275.722" r="3.81503" fill="#819FDE"/>
<circle cx="337.456" cy="397.109" r="3.81503" fill="#819FDE"/>
<circle opacity="0.75" cx="264.971" cy="236.532" r="174.991" stroke="#CBD5FC"/>
<circle opacity="0.75" cx="269.48" cy="236.879" r="137.882" stroke="#CBD5FC"/>
<circle cx="440.463" cy="251.792" r="6.24277" fill="#819FDE"/>
<circle cx="165.087" cy="67.2833" r="6.24277" fill="#819FDE"/>
<circle cx="276.069" cy="473.757" r="6.24277" fill="#819FDE"/>
<circle cx="27.7452" cy="230.289" r="6.24277" fill="#819FDE"/>
<path d="M253.179 393.294H210.867V414.663H241.02L238.589 423.121L253.179 414.663V393.294Z" fill="#819FDE"/>
<path d="M397.457 79.7686H382.197V88.2165H393.072L392.195 91.5605L397.457 88.2165V79.7686Z" fill="#819FDE"/>
<circle cx="264.624" cy="236.879" r="236.379" stroke="#CBD5FC"/>
<circle cx="196.301" cy="119.307" r="2.08092" fill="#819FDE"/>
</svg>
