<svg width="28" height="28" viewBox="0 0 28 28" fill="none" xmlns="http://www.w3.org/2000/svg">
<g clip-path="url(#clip0_1076_14342)">
<path d="M28 14C28 6.26801 21.732 0 14 0C6.26801 0 0 6.26801 0 14C0 21.732 6.26801 28 14 28C21.732 28 28 21.732 28 14Z" fill="url(#paint0_linear_1076_14342)"/>
<path opacity="0.1" d="M24.5368 4.78947C22.4957 8.53631 19.6092 12.4011 16.0023 16.0079C12.3955 19.6147 8.53075 22.4958 4.78944 24.5368C4.55488 24.333 4.32707 24.1205 4.10602 23.8995C2.76986 22.6079 1.7042 21.0633 0.97119 19.3556C0.238176 17.648 -0.147527 15.8114 -0.163428 13.9532C-0.179329 12.0949 0.174889 10.2521 0.878572 8.5321C1.58226 6.81214 2.62132 5.24949 3.93518 3.93526C5.24904 2.62103 6.8114 1.58153 8.53116 0.877368C10.2509 0.173204 12.0937 -0.181529 13.9519 -0.166146C15.8102 -0.150764 17.6468 0.234426 19.3547 0.966964C21.0626 1.6995 22.6075 2.76473 23.8994 4.10052C24.1205 4.32158 24.3329 4.55123 24.5368 4.78947Z" fill="white"/>
<path d="M17.3158 6.63159H10.6842C9.6094 6.63159 8.5786 7.05856 7.81858 7.81858C7.05856 8.5786 6.63159 9.6094 6.63159 10.6842V17.3158C6.63159 18.3906 7.05856 19.4214 7.81858 20.1814C8.5786 20.9415 9.6094 21.3684 10.6842 21.3684H17.3158C18.3906 21.3684 19.4214 20.9415 20.1814 20.1814C20.9415 19.4214 21.3684 18.3906 21.3684 17.3158V10.6842C21.3684 9.6094 20.9415 8.5786 20.1814 7.81858C19.4214 7.05856 18.3906 6.63159 17.3158 6.63159ZM20.079 16.7337C20.079 17.6209 19.7265 18.4718 19.0992 19.0992C18.4718 19.7265 17.6209 20.079 16.7337 20.079H11.2663C10.3791 20.079 9.52823 19.7265 8.90087 19.0992C8.27351 18.4718 7.92107 17.6209 7.92107 16.7337V11.2663C7.92107 10.3791 8.27351 9.52823 8.90087 8.90087C9.52823 8.27351 10.3791 7.92107 11.2663 7.92107H16.7337C17.6209 7.92107 18.4718 8.27351 19.0992 8.90087C19.7265 9.52823 20.079 10.3791 20.079 11.2663V16.7337Z" fill="white"/>
<path d="M16.6877 11.34L16.6527 11.305L16.6232 11.2755C15.9267 10.5814 14.9833 10.1919 14 10.1924C13.5035 10.1958 13.0125 10.2969 12.555 10.4901C12.0976 10.6833 11.6827 10.9648 11.334 11.3184C10.9854 11.672 10.7099 12.0908 10.5231 12.5509C10.3364 13.0111 10.2422 13.5035 10.2458 14C10.2451 15.0077 10.6423 15.975 11.3511 16.6913C11.6983 17.0427 12.112 17.3215 12.568 17.5112C13.0241 17.701 13.5134 17.798 14.0074 17.7966C14.7484 17.7811 15.4688 17.5502 16.0808 17.1323C16.6929 16.7143 17.17 16.1273 17.4542 15.4428C17.7383 14.7583 17.8172 14.0059 17.6811 13.2774C17.5449 12.5489 17.1998 11.8757 16.6877 11.34V11.34ZM14 16.4979C13.5046 16.5049 13.0182 16.3643 12.6029 16.0941C12.1875 15.8238 11.8619 15.4362 11.6675 14.9804C11.473 14.5246 11.4186 14.0213 11.5109 13.5345C11.6033 13.0477 11.8384 12.5993 12.1863 12.2465C12.5342 11.8936 12.9792 11.6522 13.4647 11.553C13.9502 11.4537 14.4542 11.5011 14.9127 11.6891C15.3711 11.8771 15.7633 12.1972 16.0394 12.6087C16.3154 13.0202 16.4629 13.5045 16.4629 14C16.4653 14.3258 16.4036 14.6488 16.2811 14.9507C16.1586 15.2526 15.9778 15.5274 15.7491 15.7593C15.5204 15.9913 15.2482 16.1759 14.9481 16.3027C14.6479 16.4294 14.3258 16.4957 14 16.4979V16.4979Z" fill="white"/>
<path d="M18.8686 10.0174C18.8696 10.1356 18.8473 10.2528 18.8029 10.3624C18.7585 10.4719 18.6929 10.5717 18.6099 10.6558C18.5269 10.74 18.4281 10.807 18.3192 10.853C18.2103 10.8989 18.0934 10.923 17.9752 10.9237C17.858 10.9236 17.742 10.9003 17.6338 10.8551C17.5257 10.8099 17.4276 10.7437 17.3452 10.6603C17.2204 10.5336 17.1355 10.3732 17.1011 10.1988C17.0666 10.0244 17.0841 9.84368 17.1514 9.67912C17.2187 9.51456 17.3328 9.37336 17.4795 9.27304C17.6263 9.17271 17.7993 9.11768 17.9771 9.11475C18.1851 9.11471 18.3866 9.18773 18.5463 9.32106L18.5647 9.33948C18.5944 9.36367 18.6216 9.39082 18.6457 9.42053L18.666 9.44264C18.7979 9.60509 18.8695 9.80815 18.8686 10.0174V10.0174Z" fill="white"/>
</g>
<defs>
<linearGradient id="paint0_linear_1076_14342" x1="4.10053" y1="4.10053" x2="23.8995" y2="23.8995" gradientUnits="userSpaceOnUse">
<stop stop-color="#FAE100"/>
<stop offset="0.15" stop-color="#FCB720"/>
<stop offset="0.3" stop-color="#FF7950"/>
<stop offset="0.5" stop-color="#FF1C74"/>
<stop offset="1" stop-color="#6C1CD1"/>
</linearGradient>
<clipPath id="clip0_1076_14342">
<rect width="28" height="28" fill="white"/>
</clipPath>
</defs>
</svg>
