<svg width="36" height="36" viewBox="0 0 36 36" fill="none" xmlns="http://www.w3.org/2000/svg">
<g clip-path="url(#clip0_1285_14402)">
<path d="M36 18C36 8.05888 27.9411 0 18 0C8.05888 0 0 8.05888 0 18C0 27.9411 8.05888 36 18 36C27.9411 36 36 27.9411 36 18Z" fill="#F68C1F"/>
<path d="M8.2961 27.398C8.2961 27.1289 8.39432 26.7812 8.26991 26.6106C8.1455 26.44 7.78538 26.4334 7.53002 26.3547C7.16989 26.2497 6.80321 26.1578 6.44309 26.0528C6.04368 25.9413 5.93236 25.751 6.03713 25.3442C6.44964 23.7169 6.86214 22.0896 7.27465 20.4623C7.60859 19.1499 7.94252 17.8441 8.26991 16.5318C8.30265 16.4006 8.31575 16.2562 8.31575 16.1184C8.31575 13.5987 8.31575 11.0856 8.31575 8.56589C8.31575 8.0672 8.41396 7.96221 8.89849 7.90316C9.36339 7.85066 9.82828 7.79817 10.2866 7.7588C10.4372 7.74568 10.5158 7.69974 10.5485 7.5357C10.6271 7.14856 10.7319 6.77454 10.8366 6.39397C10.9152 6.09869 11.0985 5.96745 11.3997 6.00682C13.9403 6.33491 16.4546 6.80735 18.9362 7.43728C19.2898 7.52914 19.663 7.52914 20.0297 7.56195C21.6011 7.69974 23.1726 7.83098 24.7441 7.97533C24.8816 7.98846 25.0191 8.10001 25.1369 8.19187C25.2351 8.27061 25.3006 8.39528 25.3988 8.48715C25.6411 8.71681 25.759 8.9924 25.7197 9.32705C25.7 9.49765 25.759 9.58951 25.9292 9.64857C26.25 9.75356 26.5578 9.88479 26.8721 9.99634C27.0751 10.0685 27.1602 10.2194 27.2518 10.4032C27.4548 10.81 27.3697 11.1906 27.2649 11.5908C26.7935 13.3625 26.3286 15.1342 25.8703 16.9124C25.8375 17.037 25.8179 17.1683 25.8179 17.2995C25.7524 20.2851 25.6869 23.2707 25.6149 26.2497C25.6018 26.709 25.5494 27.1683 25.556 27.6276C25.5625 28.1919 24.9667 28.5922 24.5542 28.6381C24.1351 28.6841 23.703 28.6906 23.2774 28.6906C23.0809 28.6906 22.9827 28.7431 22.9303 28.94C22.8648 29.1828 22.7666 29.419 22.6881 29.6618C22.6226 29.8652 22.4851 29.9505 22.269 29.9767C21.5488 30.0751 20.8743 29.8389 20.1934 29.688C18.91 29.3927 17.6332 29.0778 16.3564 28.7694C16.2451 28.7431 16.1338 28.73 16.0159 28.7234C13.6653 28.6709 11.3212 28.625 8.97052 28.5725C8.4467 28.5594 8.32229 28.4347 8.32229 27.9098C8.32229 27.7392 8.32229 27.5686 8.32229 27.3914C8.3092 27.398 8.30265 27.398 8.2961 27.398ZM8.8854 8.46746C8.8854 14.9898 8.8854 21.499 8.8854 28.0213C14.0778 28.087 19.257 28.3429 24.4363 28.1001C24.9798 21.5712 24.7375 15.0554 24.6196 8.52652C19.3945 7.87035 14.1498 7.81785 8.8854 8.46746ZM6.56095 25.5148C7.1437 25.6722 7.7068 25.8297 8.2961 25.9872C8.2961 23.5856 8.2961 21.2103 8.2961 18.835C8.28301 18.835 8.26991 18.8284 8.25682 18.8284C7.69371 21.0462 7.1306 23.2707 6.56095 25.5148ZM11.092 7.64725C12.8402 7.56851 14.5623 7.49633 16.2844 7.41759C16.232 7.40447 16.1796 7.38478 16.1272 7.37166C15.5837 7.26667 15.0403 7.14856 14.4903 7.0567C13.5147 6.89265 12.539 6.74173 11.5569 6.59738C11.4849 6.58425 11.3539 6.64331 11.3343 6.6958C11.2426 7.01076 11.1706 7.33229 11.092 7.64725ZM25.7786 10.1801C25.7786 11.4071 25.7786 12.6013 25.7786 13.7956C25.7917 13.7956 25.8113 13.7956 25.8244 13.7956C26.0929 12.7063 26.3613 11.6105 26.6298 10.5016C26.3417 10.39 26.0536 10.2851 25.7786 10.1801ZM18.8118 28.7431C18.8052 28.7628 18.7987 28.7825 18.7987 28.8022C19.7481 29.0122 20.6975 29.2287 21.6601 29.4387C21.7386 29.1893 21.8107 28.9728 21.8827 28.7431C20.835 28.7431 19.8201 28.7431 18.8118 28.7431Z" fill="black"/>
<path d="M27.5664 9.44527C27.5991 9.4059 27.645 9.30748 27.717 9.24842C28.0968 8.95315 28.4896 8.67099 28.876 8.38228C29.0331 8.26417 29.1903 8.21167 29.3278 8.38884C29.4653 8.56601 29.3736 8.71036 29.2164 8.82191C28.8236 9.11719 28.4373 9.41247 28.0313 9.69462C27.8152 9.8521 27.573 9.74711 27.5664 9.44527Z" fill="black"/>
<path d="M27.8675 7.56207C27.599 8.06732 27.3568 8.54633 27.0883 9.01221C27.0621 9.0647 26.8591 9.0647 26.7871 9.01877C26.7151 8.97284 26.6496 8.80223 26.6758 8.73662C26.8788 8.29042 27.0949 7.85079 27.3306 7.42428C27.3699 7.3521 27.5467 7.30617 27.6383 7.33241C27.73 7.33897 27.7889 7.46365 27.8675 7.56207Z" fill="black"/>
<path d="M28.1943 10.3834C28.6003 10.4097 29.0062 10.4359 29.4187 10.4556C29.6021 10.4687 29.7199 10.5606 29.7134 10.7443C29.7003 10.9412 29.5628 11.0199 29.3729 11.0068C28.9669 10.9806 28.561 10.9543 28.1485 10.9281C27.9651 10.9149 27.8473 10.8296 27.8604 10.6393C27.8669 10.4359 28.011 10.3703 28.1943 10.3834Z" fill="black"/>
<path d="M8.88477 8.46737C14.1492 7.81776 19.3939 7.87025 24.619 8.51986C24.7369 15.0553 24.9791 21.5711 24.4357 28.0934C19.2499 28.3362 14.0771 28.0869 8.88477 28.0147C8.88477 21.4923 8.88477 14.9897 8.88477 8.46737ZM16.3492 10.0159C14.6795 10.0159 13.0098 10.0159 11.3402 10.0159C10.764 10.0159 10.3646 10.3309 10.2336 10.9018C10.2009 11.033 10.1878 11.1774 10.1878 11.3151C10.1812 12.2797 10.1812 13.2509 10.1878 14.2154C10.1878 15.075 10.633 15.5212 11.4842 15.5212C13.6777 15.5343 15.8712 15.5474 18.0582 15.5671C18.9159 15.5737 19.7737 15.6393 20.6314 15.6262C21.8166 15.6065 22.3142 15.1734 22.419 13.9923C22.4975 13.0671 22.4648 12.1222 22.4648 11.1905C22.4648 10.4556 21.9934 10.0094 21.2535 10.0094C19.6231 10.0159 17.9861 10.0159 16.3492 10.0159ZM21.0177 26.0855C21.5219 26.0855 22.0326 26.079 22.5368 26.0855C22.7464 26.0855 22.8315 26.0002 22.8315 25.7968C22.8249 25.2325 22.8249 24.6682 22.8315 24.1039C22.8315 23.8808 22.7398 23.8021 22.5237 23.8021C21.535 23.8021 20.5463 23.7955 19.5576 23.7824C19.3284 23.7824 19.2302 23.8677 19.2302 24.0973C19.2368 24.6551 19.2302 25.2128 19.2302 25.7706C19.2302 26.0462 19.276 26.0921 19.5641 26.0921C20.0552 26.0921 20.5332 26.0855 21.0177 26.0855ZM15.0855 21.3152C16.7159 21.3152 18.3397 21.3152 19.9701 21.3152C20.0487 21.3152 20.1534 21.3414 20.2124 21.3021C20.304 21.243 20.435 21.138 20.435 21.0593C20.4285 20.9609 20.3171 20.8493 20.2255 20.7771C20.1796 20.7378 20.0814 20.764 20.0094 20.764C16.729 20.764 13.4485 20.764 10.1681 20.764C10.1026 20.764 10.0175 20.7443 9.97824 20.7771C9.88657 20.8559 9.76216 20.9543 9.76216 21.0462C9.76216 21.1315 9.89312 21.243 9.98479 21.3021C10.0437 21.3414 10.1419 21.3152 10.2271 21.3152C11.8509 21.3152 13.4682 21.3152 15.0855 21.3152ZM13.9462 18.0999C14.3129 18.0999 14.6795 18.0999 15.0527 18.0999C15.9432 18.0999 16.8337 18.0999 17.7308 18.0999C17.9272 18.0999 18.0844 18.0278 18.0778 17.8112C18.0778 17.6078 17.9272 17.5422 17.7373 17.5422C17.698 17.5422 17.6588 17.5422 17.6129 17.5422C15.1772 17.5422 12.7348 17.5422 10.2991 17.5422C10.2205 17.5422 10.1223 17.5225 10.0568 17.5619C9.97169 17.6144 9.85383 17.7128 9.85383 17.7915C9.85383 17.89 9.9455 18.0081 10.0241 18.0737C10.083 18.1196 10.1943 18.0999 10.286 18.0999C11.5104 18.0999 12.7283 18.0999 13.9462 18.0999ZM13.1408 24.3073C14.1819 24.3073 15.2164 24.3073 16.2575 24.3073C16.3296 24.3073 16.4278 24.3336 16.4736 24.2942C16.5653 24.222 16.6831 24.117 16.6897 24.0252C16.6962 23.9464 16.5653 23.8414 16.4802 23.7693C16.4409 23.7365 16.3557 23.7561 16.2903 23.7561C14.195 23.7561 12.0997 23.7561 10.0044 23.7561C9.93895 23.7561 9.85383 23.7299 9.81455 23.7627C9.72288 23.8414 9.59847 23.9399 9.59192 24.0383C9.57883 24.2614 9.74907 24.3073 9.9455 24.3073C11.0128 24.3073 12.0735 24.3073 13.1408 24.3073Z" fill="white"/>
<path d="M6.56055 25.5147C7.1302 23.2772 7.69331 21.0528 8.25641 18.8284C8.26951 18.8284 8.28261 18.8349 8.2957 18.8349C8.2957 21.2103 8.2957 23.5856 8.2957 25.9872C7.71295 25.8231 7.14984 25.6722 6.56055 25.5147Z" fill="white"/>
<path d="M11.0918 7.64719C11.1704 7.33222 11.2424 7.0107 11.3341 6.69574C11.3472 6.64324 11.4847 6.58419 11.5567 6.59731C12.5323 6.74167 13.5145 6.89259 14.4901 7.05663C15.0401 7.1485 15.5836 7.26661 16.127 7.37159C16.1794 7.38472 16.2318 7.4044 16.2842 7.41753C14.5621 7.49627 12.8466 7.56844 11.0918 7.64719Z" fill="white"/>
<path d="M25.7793 10.1802C26.0543 10.2852 26.3424 10.3967 26.6305 10.5083C26.362 11.6172 26.0936 12.7064 25.8251 13.8022C25.812 13.8022 25.7924 13.8022 25.7793 13.8022C25.7793 12.6014 25.7793 11.4072 25.7793 10.1802Z" fill="white"/>
<path d="M18.8107 28.7432C19.819 28.7432 20.8339 28.7432 21.875 28.7432C21.803 28.9728 21.731 29.1894 21.6524 29.4387C20.6899 29.2222 19.7404 29.0122 18.791 28.8022C18.7976 28.7825 18.8041 28.7628 18.8107 28.7432Z" fill="white"/>
<path d="M16.3502 10.0161C17.9871 10.0161 19.6241 10.0161 21.261 10.0161C22.0009 10.0161 22.4658 10.4623 22.4723 11.1972C22.4723 12.129 22.5051 13.0673 22.4265 13.9991C22.3283 15.1802 21.8307 15.6132 20.639 15.6329C19.7812 15.6461 18.9235 15.5804 18.0657 15.5739C15.8722 15.5542 13.6787 15.5411 11.4918 15.5279C10.6406 15.5214 10.2019 15.0817 10.1953 14.2222C10.1953 13.2576 10.1953 12.2865 10.1953 11.3219C10.1953 11.1841 10.2084 11.0397 10.2411 10.9085C10.3721 10.3442 10.765 10.0292 11.3477 10.0227C13.0108 10.0161 14.6805 10.0161 16.3502 10.0161ZM16.3567 10.5739C14.6871 10.5739 13.0174 10.5739 11.3477 10.5739C11.0269 10.5739 10.8501 10.7182 10.7781 11.0332C10.7584 11.125 10.7453 11.23 10.7453 11.3219C10.7453 12.2799 10.7453 13.2379 10.7453 14.2025C10.7453 14.3075 10.7584 14.419 10.7781 14.5174C10.8501 14.8193 11.0269 14.9571 11.3346 14.9636C12.3233 14.9768 13.312 14.9833 14.3008 14.9964C15.9704 15.0161 17.6401 15.0424 19.3032 15.0621C19.8401 15.0686 20.3836 15.0949 20.9205 15.0555C21.5164 15.0161 21.8307 14.7209 21.8634 14.1237C21.9092 13.1395 21.9158 12.1552 21.9092 11.1775C21.9092 10.7641 21.667 10.5804 21.261 10.5804C19.6306 10.5739 17.9937 10.5739 16.3567 10.5739Z" fill="black"/>
<path d="M21.0193 26.0857C20.5347 26.0857 20.0568 26.0857 19.5722 26.0857C19.2841 26.0857 19.2383 26.0398 19.2383 25.7642C19.2383 25.2064 19.2448 24.6487 19.2383 24.0909C19.2383 23.8547 19.3365 23.7694 19.5657 23.776C20.5544 23.7891 21.5431 23.7957 22.5318 23.7957C22.7544 23.7957 22.8461 23.881 22.8395 24.0975C22.833 24.6618 22.833 25.2261 22.8395 25.7904C22.8395 26.0004 22.7544 26.0857 22.5449 26.0791C22.0342 26.0857 21.5234 26.0857 21.0193 26.0857Z" fill="black"/>
<path d="M15.085 21.3154C13.4677 21.3154 11.8439 21.3154 10.2266 21.3154C10.148 21.3154 10.0433 21.3416 9.98434 21.3022C9.88613 21.2366 9.76172 21.1316 9.76172 21.0463C9.76172 20.9545 9.88613 20.8495 9.97779 20.7773C10.0171 20.7445 10.1022 20.7642 10.1677 20.7642C13.4481 20.7642 16.7285 20.7642 20.009 20.7642C20.081 20.7642 20.1792 20.7379 20.225 20.7773C20.3167 20.856 20.428 20.961 20.4346 21.0595C20.4411 21.1382 20.3036 21.2432 20.2119 21.3022C20.153 21.3416 20.0548 21.3154 19.9697 21.3154C18.3458 21.3154 16.7154 21.3154 15.085 21.3154Z" fill="black"/>
<path d="M13.9475 18.1C12.7296 18.1 11.5117 18.1 10.2938 18.1C10.2021 18.1 10.0908 18.1197 10.0319 18.0738C9.94678 18.0082 9.85511 17.89 9.86166 17.7916C9.86166 17.7129 9.97952 17.6145 10.0646 17.562C10.1236 17.5226 10.2218 17.5423 10.3069 17.5423C12.7427 17.5423 15.185 17.5423 17.6207 17.5423C17.66 17.5423 17.6993 17.5423 17.7452 17.5423C17.9285 17.5423 18.0791 17.6079 18.0856 17.8113C18.0856 18.0278 17.935 18.1 17.7386 18.1C16.8481 18.1 15.9576 18.1 15.0606 18.1C14.6874 18.1 14.3207 18.1 13.9475 18.1Z" fill="black"/>
<path d="M13.1427 24.3075C12.0819 24.3075 11.0146 24.3075 9.9539 24.3075C9.75746 24.3075 9.58722 24.2615 9.60032 24.0384C9.60687 23.94 9.73127 23.8416 9.82294 23.7628C9.86223 23.73 9.94735 23.7563 10.0128 23.7563C12.1081 23.7563 14.2034 23.7563 16.2987 23.7563C16.3641 23.7563 16.4493 23.7366 16.4886 23.7694C16.5737 23.8416 16.7046 23.94 16.6981 24.0253C16.6915 24.1237 16.5737 24.2287 16.482 24.2943C16.4362 24.3337 16.338 24.3075 16.2659 24.3075C15.2183 24.3075 14.1772 24.3075 13.1427 24.3075Z" fill="black"/>
<path d="M16.3568 10.5739C17.9938 10.5739 19.6307 10.5739 21.2676 10.5739C21.6802 10.5739 21.9159 10.7577 21.9159 11.1711C21.9224 12.1553 21.9159 13.1396 21.87 14.1173C21.8373 14.7144 21.523 15.0097 20.9272 15.049C20.3902 15.0818 19.8468 15.0621 19.3099 15.0556C17.6402 15.0359 15.9705 15.0162 14.3074 14.99C13.3187 14.9768 12.33 14.9703 11.3413 14.9572C11.0335 14.9506 10.8567 14.8128 10.7847 14.511C10.7585 14.406 10.752 14.301 10.752 14.196C10.752 13.238 10.752 12.28 10.752 11.3154C10.752 11.217 10.765 11.1186 10.7847 11.0267C10.8567 10.7117 11.0335 10.5674 11.3543 10.5674C13.0175 10.5739 14.6872 10.5739 16.3568 10.5739Z" fill="white"/>
</g>
<defs>
<clipPath id="clip0_1285_14402">
<rect width="36" height="36" fill="white"/>
</clipPath>
</defs>
</svg>
