<svg width="28" height="28" viewBox="0 0 28 28" fill="none" xmlns="http://www.w3.org/2000/svg">
<g clip-path="url(#clip0_1076_14298)">
<path d="M14 28C21.732 28 28 21.732 28 14C28 6.26801 21.732 0 14 0C6.26801 0 0 6.26801 0 14C0 21.732 6.26801 28 14 28Z" fill="#0B69C7"/>
<path d="M10.8684 8.91026C10.8688 9.28859 10.7569 9.65853 10.5469 9.97326C10.337 10.288 10.0384 10.5333 9.68888 10.6783C9.33942 10.8232 8.9548 10.8613 8.58372 10.7876C8.21263 10.7138 7.87176 10.5317 7.60423 10.2642C7.33671 9.99664 7.15456 9.65576 7.08084 9.28468C7.00712 8.9136 7.04514 8.52899 7.19009 8.17952C7.33504 7.83006 7.58041 7.53144 7.89514 7.32148C8.20986 7.11152 8.57981 6.99964 8.95814 7C9.46463 7.00049 9.95023 7.2019 10.3084 7.56004C10.6665 7.91818 10.8679 8.40378 10.8684 8.91026V8.91026Z" fill="white"/>
<path d="M9.96388 11.6182H7.9523C7.69084 11.6182 7.47888 11.8301 7.47888 12.0916V20.5266C7.47888 20.788 7.69084 21 7.9523 21H9.96388C10.2253 21 10.4373 20.788 10.4373 20.5266V12.0916C10.4373 11.8301 10.2253 11.6182 9.96388 11.6182Z" fill="white"/>
<path d="M20.9539 16.4813V20.5653C20.9539 20.6806 20.9081 20.7911 20.8266 20.8727C20.745 20.9542 20.6344 21 20.5192 21H18.3602C18.2449 21 18.1343 20.9542 18.0528 20.8727C17.9713 20.7911 17.9255 20.6806 17.9255 20.5653V16.6084C17.9255 16.0171 18.0968 14.0295 16.3818 14.0295C15.0518 14.0295 14.781 15.3963 14.7239 16.0097V20.5745C14.7215 20.6875 14.6752 20.7952 14.5947 20.8747C14.5142 20.9541 14.4059 20.9991 14.2928 21H12.2039C12.1467 21.0002 12.0901 20.9892 12.0373 20.9674C11.9844 20.9456 11.9364 20.9136 11.896 20.8732C11.8555 20.8328 11.8235 20.7848 11.8018 20.7319C11.78 20.6791 11.7689 20.6224 11.7692 20.5653V12.0547C11.7689 11.9975 11.78 11.9407 11.8017 11.8878C11.8235 11.8348 11.8555 11.7867 11.8958 11.7461C11.9362 11.7056 11.9842 11.6734 12.0371 11.6514C12.09 11.6294 12.1467 11.6181 12.2039 11.6181H14.2928C14.3508 11.6172 14.4084 11.6277 14.4622 11.6492C14.516 11.6707 14.565 11.7027 14.6063 11.7434C14.6477 11.784 14.6805 11.8325 14.7029 11.8859C14.7253 11.9394 14.7368 11.9968 14.7368 12.0547V12.7916C15.2305 12.0547 15.9636 11.48 17.5239 11.48C20.9741 11.4781 20.9539 14.7074 20.9539 16.4813Z" fill="white"/>
</g>
<defs>
<clipPath id="clip0_1076_14298">
<rect width="28" height="28" fill="white"/>
</clipPath>
</defs>
</svg>
