<svg width="14" height="12" viewBox="0 0 14 12" fill="none" xmlns="http://www.w3.org/2000/svg">
<path d="M11.6667 0.666687H2.33337C1.80294 0.666687 1.29423 0.877401 0.919161 1.25247C0.544088 1.62755 0.333374 2.13625 0.333374 2.66669V9.33335C0.333374 9.86379 0.544088 10.3725 0.919161 10.7476C1.29423 11.1226 1.80294 11.3334 2.33337 11.3334H11.6667C12.1971 11.3334 12.7058 11.1226 13.0809 10.7476C13.456 10.3725 13.6667 9.86379 13.6667 9.33335V2.66669C13.6667 2.13625 13.456 1.62755 13.0809 1.25247C12.7058 0.877401 12.1971 0.666687 11.6667 0.666687ZM2.33337 2.00002H11.6667C11.8435 2.00002 12.0131 2.07026 12.1381 2.19528C12.2631 2.32031 12.3334 2.48988 12.3334 2.66669L7.00004 5.92002L1.66671 2.66669C1.66671 2.48988 1.73695 2.32031 1.86197 2.19528C1.98699 2.07026 2.15656 2.00002 2.33337 2.00002ZM12.3334 9.33335C12.3334 9.51016 12.2631 9.67973 12.1381 9.80476C12.0131 9.92978 11.8435 10 11.6667 10H2.33337C2.15656 10 1.98699 9.92978 1.86197 9.80476C1.73695 9.67973 1.66671 9.51016 1.66671 9.33335V4.18669L6.65337 7.23335C6.75472 7.29187 6.86968 7.32267 6.98671 7.32267C7.10373 7.32267 7.21869 7.29187 7.32004 7.23335L12.3334 4.18669V9.33335Z" fill="#F68C1F"/>
</svg>
