<svg width="299" height="293" viewBox="0 0 299 293" fill="none" xmlns="http://www.w3.org/2000/svg">
<circle cx="5.18577" cy="160.859" r="3.67405" fill="#FE66E2"/>
<circle cx="47.6428" cy="172.289" r="3.67405" fill="#16F4F4"/>
<circle cx="40.2951" cy="107.789" r="3.67405" fill="#2034ED"/>
<path d="M29.1406 133.972L36.9404 139.896L32.2838 140.46L28.557 138.371L29.1406 133.972Z" fill="#F9D333"/>
<path d="M14.5746 108.109C12.4028 107.853 10.4311 105.34 9.71665 104.115L8.85938 106.352C8.85938 108.141 11.8122 110.505 13.2886 111.463L14.5746 108.109Z" fill="#F52525"/>
<path d="M11.776 69.8415C11.7455 67.6549 13.9795 65.3716 15.1003 64.5032L12.7711 63.9456C10.9973 64.1795 9.0394 67.416 8.28215 69.005L11.776 69.8415Z" fill="#36F525"/>
<path d="M56.3082 120.679C52.8141 121.883 46.8743 126.786 51.0671 136.768C53.1417 139.176 57.8804 142.547 60.2389 136.768C60.2389 132.007 48.1846 130.398 51.0671 150.888" stroke="#52ED98" stroke-width="2"/>
<path d="M52.0793 67.7243C52.2521 64.5501 50.2773 58.2354 40.9967 58.3697C38.4145 59.2501 34.2069 61.9458 38.0338 65.6854C41.8144 67.2166 46.986 58.119 29.7853 53.8291" stroke="#FCD401" stroke-width="2"/>
<circle cx="104.191" cy="233.198" r="2.47785" transform="rotate(-52.7137 104.191 233.198)" fill="#FE66E2"/>
<circle cx="127.668" cy="215.086" r="2.47785" transform="rotate(-52.7137 127.668 215.086)" fill="#16F4F4"/>
<circle cx="90.0584" cy="192.677" r="2.47785" transform="rotate(-52.7137 90.0584 192.677)" fill="#2034ED"/>
<circle cx="49.0975" cy="215.152" r="2.47785" transform="rotate(-52.7137 49.0975 215.152)" fill="#1CDC73"/>
<path d="M99.5508 209.359L105.917 207.595L104.317 210.324L101.673 211.47L99.5508 209.359Z" fill="#F9D333"/>
<path d="M55.5586 242.983L61.9244 241.219L60.3245 243.948L57.6809 245.094L55.5586 242.983Z" fill="#10E2EF"/>
<path d="M79.72 206.608C78.6956 207.669 76.5415 207.7 75.5924 207.583L76.4422 208.957C77.4022 209.688 79.8772 209.069 80.9947 208.668L79.72 206.608Z" fill="#F52525"/>
<path d="M58.0432 192.476C56.8575 191.599 56.545 189.468 56.537 188.512L55.2861 189.534C54.6869 190.581 55.6236 192.954 56.1669 194.009L58.0432 192.476Z" fill="#36F525"/>
<path d="M126.355 247.788C125.574 250.155 125.778 255.345 132.847 257.174C134.987 257.044 138.732 255.879 136.595 252.252C134.04 250.307 128.252 256.118 140.424 262.942" stroke="#77CBFB" stroke-width="2"/>
<path d="M21.6189 191.015C19.9863 189.626 15.7911 188.105 12.0715 193.14C11.4889 194.885 11.2163 198.244 14.7865 197.719C17.1526 196.316 14.384 189.824 5.05458 197.301" stroke="#FCD401" stroke-width="2"/>
<circle cx="62.5304" cy="57.4362" r="3.18669" transform="rotate(70.1995 62.5304 57.4362)" fill="#FE66E2"/>
<circle cx="65.6749" cy="95.442" r="3.18669" transform="rotate(70.1995 65.6749 95.442)" fill="#16F4F4"/>
<circle cx="116.155" cy="70.4948" r="3.18669" transform="rotate(70.1995 116.155 70.4948)" fill="#2034ED"/>
<circle cx="86.3585" cy="23.2682" r="3.18669" transform="rotate(70.1995 86.3585 23.2682)" fill="#1CDC73"/>
<path d="M91.5117 69.085L88.9683 77.1909L87.1399 73.5565L87.7498 69.9013L91.5117 69.085Z" fill="#F9D333"/>
<path d="M43.3633 77.6807L40.8199 85.7866L38.9915 82.1522L39.6014 78.497L43.3633 77.6807Z" fill="#10E2EF"/>
<path d="M108.338 49.6C107.909 47.7526 109.38 45.4051 110.17 44.4623L108.093 44.4198C106.633 44.9454 105.571 48.0498 105.223 49.5363L108.338 49.6Z" fill="#F52525"/>
<path d="M138.745 36.0707C140.52 35.4034 143.04 36.5557 144.078 37.2152L143.848 35.1505C143.136 33.7717 139.92 33.1248 138.401 32.9737L138.745 36.0707Z" fill="#36F525"/>
<path d="M152.312 68.3405C154.953 67.5489 159.526 64.082 156.69 56.5478C155.213 54.6992 151.777 52.0575 149.849 56.2793C149.711 59.8144 158.654 61.3619 157.101 46.0644" stroke="#FCD401" stroke-width="2"/>
<circle cx="238.685" cy="133.268" r="3.7266" transform="rotate(-161.581 238.685 133.268)" fill="#FE66E2"/>
<circle cx="201.489" cy="108.662" r="3.7266" transform="rotate(-161.581 201.489 108.662)" fill="#16F4F4"/>
<circle cx="189.341" cy="187.392" r="3.7266" transform="rotate(-161.581 189.341 187.392)" fill="#2034ED"/>
<circle cx="236.341" cy="210.392" r="3.7266" transform="rotate(-161.581 236.341 210.392)" fill="#1CDC73"/>
<path d="M207.016 151.466L201.408 143.264L206.07 144.214L208.987 147.419L207.016 151.466Z" fill="#F9D333"/>
<path d="M276.262 197.717L270.655 189.515L275.317 190.465L278.233 193.67L276.262 197.717Z" fill="#10E2EF"/>
<path d="M212.741 181.022C214.749 181.964 215.841 185.015 216.136 186.423L217.678 184.545C218.251 182.823 216.167 179.602 215.053 178.206L212.741 181.022Z" fill="#F52525"/>
<path d="M203.172 218.746C202.501 220.86 199.619 222.342 198.262 222.818L200.325 224.101C202.107 224.445 205.028 221.957 206.266 220.671L203.172 218.746Z" fill="#36F525"/>
<path d="M231.408 179.01C235.157 178.972 242.444 176.156 241.608 165.207C240.384 162.224 236.904 157.462 232.782 162.267C231.256 166.849 242.341 172.261 246.134 151.619" stroke="#EDF11A" stroke-width="2"/>
<path d="M170.411 228.289C169.228 231.289 169.104 237.999 178.078 240.844C180.845 240.824 185.759 239.578 183.274 234.753C180.127 232.068 172.234 239.165 187.412 248.806" stroke="#FCD401" stroke-width="2"/>
<circle cx="203.936" cy="42.3228" r="2.57649" transform="rotate(123.913 203.936 42.3228)" fill="#FE66E2"/>
<circle cx="180.67" cy="62.5581" r="2.57649" transform="rotate(123.913 180.67 62.5581)" fill="#16F4F4"/>
<circle cx="221.084" cy="83.5181" r="2.57649" transform="rotate(123.913 221.084 83.5181)" fill="#2034ED"/>
<circle cx="237.604" cy="41.5015" r="2.57649" transform="rotate(123.913 237.604 41.5015)" fill="#1CDC73"/>
<path d="M210.211 66.7832L203.711 69.0043L205.205 66.0736L207.879 64.7221L210.211 66.7832Z" fill="#F9D333"/>
<path d="M253.816 29.1895L247.317 31.4105L248.81 28.4799L251.484 27.1284L253.816 29.1895Z" fill="#10E2EF"/>
<path d="M230.959 68.4266C231.958 67.2627 234.192 67.0986 235.184 67.162L234.218 65.7881C233.177 65.0881 230.646 65.8815 229.51 66.3658L230.959 68.4266Z" fill="#F52525"/>
<path d="M254.327 81.7689C255.612 82.6067 256.067 84.8002 256.133 85.7922L257.369 84.6549C257.927 83.5311 256.81 81.1253 256.181 80.0629L254.327 81.7689Z" fill="#36F525"/>
<path d="M239.789 106.053C241.569 107.396 246.017 108.717 249.57 103.264C250.068 101.416 250.145 97.913 246.471 98.677C244.101 100.278 247.372 106.847 256.599 98.5155" stroke="#FCD401" stroke-width="2"/>
<circle opacity="0.1" cx="134.625" cy="133.679" r="61" fill="#5902B3"/>
<circle cx="134.625" cy="133.679" r="48" fill="#5902B3"/>
<path d="M112.318 135.05L123.92 147.364L152.621 117.999" stroke="white" stroke-width="6"/>
</svg>
