<svg width="254" height="203" viewBox="0 0 254 203" fill="none" xmlns="http://www.w3.org/2000/svg">
<path opacity="0.51" d="M244 102C244 169.379 189.379 224 122 224M244 102C244 34.6213 189.379 -20 122 -20M244 102H0M122 224C54.6213 224 0 169.379 0 102M122 224C152.516 190.592 169.858 147.237 170.8 102C169.858 56.7628 152.516 13.4079 122 -20M122 224C91.4844 190.592 74.1424 147.237 73.2 102C74.1424 56.7628 91.4844 13.4079 122 -20M0 102C0 34.6213 54.6213 -20 122 -20" stroke="#D3D3D3" stroke-width="19" stroke-linecap="round" stroke-linejoin="round"/>
</svg>
