<svg width="191" height="147" viewBox="0 0 191 147" fill="none" xmlns="http://www.w3.org/2000/svg">
<path d="M184 95.5C184 144.377 144.377 184 95.5 184M184 95.5C184 46.6228 144.377 7 95.5 7M184 95.5H7M95.5 184C46.6228 184 7 144.377 7 95.5M95.5 184C117.636 159.766 130.216 128.316 130.9 95.5C130.216 62.6845 117.636 31.2344 95.5 7M95.5 184C73.3637 159.766 60.7836 128.316 60.1 95.5C60.7836 62.6845 73.3637 31.2344 95.5 7M7 95.5C7 46.6228 46.6228 7 95.5 7" stroke="#E6E6E6" stroke-width="13" stroke-linecap="round" stroke-linejoin="round"/>
</svg>
