<svg width="15" height="15" viewBox="0 0 15 15" fill="none" xmlns="http://www.w3.org/2000/svg">
<path d="M7.5 0C3.35772 0 0 3.35772 0 7.5C0 8.36478 0.101413 8.92785 0.386983 9.79364C0.943996 11.4021 3.8663 8.37689 5.12361 10.1615C6.38093 11.945 2.28809 13.5116 5.0328 14.5832C6.28153 14.8865 6.63471 15 7.5 15C11.6423 15 15 11.6428 15 7.5005C15 3.35772 11.6423 0 7.5 0ZM11.1387 2.5C11.9934 2.5 12.6872 3.09031 12.6872 3.81887C12.6872 4.54642 11.9934 5.13724 11.1387 5.13724C10.2836 5.13724 9.58981 4.54642 9.58981 3.81887C9.58981 3.09031 10.283 2.5 11.1387 2.5ZM2.39152 7.97275C1.53633 7.97275 0.843088 7.38194 0.843088 6.65388C0.843088 5.92583 1.53683 5.33502 2.39152 5.33502C3.24722 5.33502 3.94097 5.92583 3.94097 6.65388C3.94097 7.38194 3.24773 7.97275 2.39152 7.97275ZM4.20535 4.93643C3.35015 4.93643 2.65641 4.34612 2.65641 3.61756C2.65641 2.889 3.35015 2.29869 4.20535 2.29869C5.06054 2.29869 5.75429 2.889 5.75429 3.61756C5.75429 4.34612 5.06054 4.93643 4.20535 4.93643ZM6.09384 2.11352C6.09384 1.38547 6.78708 0.794147 7.64279 0.794147C8.49748 0.794147 9.19072 1.38547 9.19072 2.11352C9.19072 2.84157 8.49697 3.43239 7.64279 3.43239C6.78708 3.43239 6.09384 2.84157 6.09384 2.11352ZM8.74924 13.939C7.89354 13.939 7.20081 13.3486 7.20081 12.6206C7.20081 11.8925 7.89455 11.3022 8.74924 11.3022C9.60444 11.3022 10.2982 11.8925 10.2982 12.6206C10.2982 13.3486 9.60444 13.939 8.74924 13.939ZM11.8466 11.6826C10.9914 11.6826 10.2982 11.0908 10.2982 10.3638C10.2982 9.63572 10.9914 9.0449 11.8466 9.0449C12.7013 9.0449 13.3951 9.63572 13.3951 10.3638C13.3956 11.0908 12.7023 11.6826 11.8466 11.6826ZM12.6872 8.3774C11.832 8.3774 11.1382 7.78708 11.1382 7.05853C11.1382 6.32997 11.832 5.73966 12.6872 5.73966C13.5424 5.73966 14.2361 6.32997 14.2361 7.05853C14.2361 7.78708 13.5434 8.3774 12.6872 8.3774Z" fill="white"/>
</svg>
