<svg width="28" height="28" viewBox="0 0 28 28" fill="none" xmlns="http://www.w3.org/2000/svg">
<g clip-path="url(#clip0_1076_14291)">
<path d="M14 28C21.732 28 28 21.732 28 14C28 6.26801 21.732 0 14 0C6.26801 0 0 6.26801 0 14C0 21.732 6.26801 28 14 28Z" fill="#279EF5"/>
<path d="M20.9724 9.76316C20.6415 10.2602 20.2371 10.7043 19.7732 11.0803C19.7147 11.129 19.6678 11.1902 19.6359 11.2593C19.6041 11.3285 19.588 11.4039 19.589 11.48V11.5261C19.5835 12.5244 19.4002 13.5137 19.0474 14.4476C18.6839 15.4278 18.1438 16.3332 17.454 17.1187C16.5269 18.174 15.3344 18.9621 14 19.4011C13.1232 19.6856 12.2065 19.828 11.2848 19.8229C9.82238 19.8227 8.38607 19.4357 7.1216 18.7011C7.07629 18.6753 7.04062 18.6354 7.02001 18.5876C6.9994 18.5397 6.99497 18.4864 7.00739 18.4358C7.02014 18.386 7.0492 18.3419 7.08992 18.3105C7.13065 18.2791 7.18071 18.2623 7.23213 18.2626H7.58213C8.69346 18.2654 9.78021 17.9356 10.7026 17.3158C10.1529 17.2268 9.63844 16.9877 9.21589 16.625C8.79335 16.2623 8.47915 15.7899 8.30792 15.26C8.29915 15.2335 8.29756 15.2051 8.3033 15.1777C8.30905 15.1504 8.32193 15.125 8.34064 15.1043C8.35935 15.0835 8.38321 15.0681 8.40982 15.0595C8.43642 15.0509 8.46482 15.0496 8.49213 15.0555C8.65977 15.0871 8.82996 15.1031 9.00055 15.1034H9.06502C8.53371 14.8593 8.08449 14.4666 7.77164 13.9726C7.45879 13.4787 7.29571 12.9047 7.30213 12.32C7.30232 12.2926 7.30959 12.2658 7.32323 12.2421C7.33688 12.2184 7.35643 12.1986 7.37999 12.1847C7.40354 12.1708 7.4303 12.1632 7.45766 12.1627C7.48501 12.1622 7.51203 12.1688 7.53607 12.1818C7.75218 12.3025 7.98406 12.3924 8.22502 12.4489C7.74875 11.9777 7.4424 11.3617 7.35405 10.6976C7.2657 10.0335 7.40035 9.35881 7.73686 8.77947C7.7496 8.75722 7.76754 8.73839 7.78915 8.7246C7.81076 8.71081 7.83539 8.70247 7.86093 8.7003C7.88648 8.69812 7.91217 8.70218 7.9358 8.71212C7.95943 8.72206 7.98029 8.73759 7.9966 8.75737C8.66193 9.58116 9.48593 10.2629 10.4197 10.7623C11.3535 11.2616 12.3781 11.5683 13.4326 11.6642H13.4474C13.4629 11.6638 13.4781 11.6602 13.4922 11.6536C13.5062 11.6471 13.5188 11.6378 13.5292 11.6262C13.5395 11.6147 13.5474 11.6012 13.5523 11.5865C13.5573 11.5718 13.5592 11.5562 13.5579 11.5408C13.5168 11.1711 13.5405 10.7971 13.6279 10.4355C13.7468 9.94408 13.9907 9.49173 14.3361 9.12247C14.6815 8.7532 15.1165 8.47956 15.599 8.32816C15.9085 8.23147 16.2307 8.1818 16.555 8.18079C17.2902 8.17994 18.0004 8.4479 18.5518 8.93421C18.6233 8.99812 18.7157 9.03352 18.8116 9.03368C18.8427 9.03302 18.8736 9.02869 18.9037 9.02079C19.4218 8.88987 19.9182 8.68448 20.3774 8.41105C20.4049 8.3941 20.4369 8.38606 20.4691 8.38803C20.5013 8.39 20.5322 8.40188 20.5574 8.42205C20.5826 8.44222 20.601 8.46969 20.61 8.50069C20.6189 8.5317 20.6181 8.56473 20.6076 8.59526C20.4543 9.07749 20.1812 9.51293 19.8137 9.86079C20.1447 9.78186 20.4678 9.67272 20.7789 9.53474C20.8097 9.52288 20.8433 9.52089 20.8752 9.52903C20.9071 9.53716 20.9356 9.55503 20.9569 9.58015C20.9782 9.60527 20.9911 9.63639 20.9939 9.66918C20.9966 9.70198 20.9891 9.73483 20.9724 9.76316Z" fill="white"/>
</g>
<defs>
<clipPath id="clip0_1076_14291">
<rect width="28" height="28" fill="white"/>
</clipPath>
</defs>
</svg>
