<svg width="68" height="68" viewBox="0 0 68 68" fill="none" xmlns="http://www.w3.org/2000/svg">
<path d="M34.0743 0.0357045C41.6991 0.0357045 49.3247 0.0103513 56.9495 0.043883C62.2344 0.0667827 66.2869 3.07482 67.5709 7.82651C67.8334 8.79812 67.9692 9.78935 67.9692 10.7945C67.9725 26.2199 67.9962 41.6453 67.9594 57.0699C67.9447 63.3117 63.359 67.8728 57.1221 67.8818C41.655 67.9047 26.187 67.9031 10.7199 67.8647C4.82569 67.8499 0.173778 63.3968 0.10835 57.523C-0.00287715 47.5019 0.0584616 37.4792 0.082997 27.4573C0.0887219 25.133 1.37601 24.1532 3.66762 24.5711C8.3089 25.4168 11.1616 28.3872 12.0088 33.4014C12.61 36.9623 13.1219 40.5396 13.6257 44.116C14.0207 46.9155 14.8926 47.7194 17.715 47.7194C25.3692 47.7203 36.1067 47.5722 43.464 47.5706C45.9209 47.5698 46.9865 46.9458 47.7937 44.5838C50.127 37.7573 52.4604 30.9315 54.788 24.1025C55.6148 21.6776 55.0546 20.9129 52.4759 20.9047C40.9737 20.8704 26.205 20.8573 14.7028 20.7853C11.9565 20.7681 9.2437 20.3715 6.59878 19.5577C1.29014 17.9237 -0.489496 15.0743 0.111621 9.57343C0.769988 3.54509 6.06309 -0.0804298 11.0675 0.00135491C18.7356 0.128121 26.4054 0.0357045 34.0743 0.0357045ZM18.4085 49.9922C16.2715 50.016 14.5139 51.7719 14.5016 53.8958C14.4894 56.0329 16.3721 57.9057 18.5009 57.8738C20.6036 57.8428 22.389 56.0369 22.3996 53.9326C22.4102 51.7433 20.6118 49.9677 18.4085 49.9922ZM39.8165 49.9914C37.6246 49.9702 35.8041 51.7686 35.8221 53.9375C35.8393 56.0329 37.6369 57.8428 39.7314 57.873C41.8635 57.9041 43.7388 56.0312 43.7209 53.8909C43.702 51.7514 41.96 50.0119 39.8165 49.9914Z" fill="white"/>
</svg>
