<svg width="16" height="15" viewBox="0 0 16 15" fill="none" xmlns="http://www.w3.org/2000/svg">
<path d="M14.4286 7.35716C14.4286 10.9076 11.5504 13.7857 7.99998 13.7857M14.4286 7.35716C14.4286 3.80676 11.5504 0.928589 7.99998 0.928589M14.4286 7.35716H1.57141M7.99998 13.7857C4.44958 13.7857 1.57141 10.9076 1.57141 7.35716M7.99998 13.7857C9.60795 12.0254 10.5218 9.74085 10.5714 7.35716C10.5218 4.97347 9.60795 2.68896 7.99998 0.928589M7.99998 13.7857C6.39202 12.0254 5.47821 9.74085 5.42855 7.35716C5.47821 4.97347 6.39202 2.68896 7.99998 0.928589M1.57141 7.35716C1.57141 3.80676 4.44958 0.928589 7.99998 0.928589" stroke="#F68C1F" stroke-width="1.5" stroke-linecap="round" stroke-linejoin="round"/>
</svg>
