<svg width="24" height="25" viewBox="0 0 24 25" fill="none" xmlns="http://www.w3.org/2000/svg">
<path d="M20.2966 4.3046C18.0977 2.105 15.1698 0.899902 12.0537 0.899902C5.63337 0.899902 0.400711 6.1064 0.400711 12.4946C0.400711 14.5421 0.941616 16.5311 1.95287 18.2861L0.306641 24.2999L6.48001 22.6853C8.18503 23.6096 10.1017 24.101 12.0537 24.101C18.474 24.101 23.7066 18.8945 23.7066 12.5063C23.7066 9.4058 22.4955 6.4925 20.2966 4.3046ZM12.0537 22.1354C10.3134 22.1354 8.60835 21.6674 7.11498 20.7899L6.76222 20.5793L3.09347 21.5387L4.06945 17.9819L3.83428 17.6192C2.87006 16.0865 2.35267 14.3081 2.35267 12.4946C2.35267 7.1828 6.70342 2.8538 12.0419 2.8538C14.6288 2.8538 17.0629 3.86 18.8855 5.6852C20.7199 7.5104 21.7194 9.9323 21.7194 12.5063C21.7429 17.8181 17.3922 22.1354 12.0537 22.1354ZM17.3686 14.9282C17.0747 14.7878 15.6401 14.0858 15.3814 13.9805C15.111 13.8869 14.9228 13.8401 14.7229 14.1209C14.523 14.4134 13.9704 15.0686 13.8057 15.2558C13.6411 15.4547 13.4647 15.4781 13.1708 15.326C12.8768 15.1856 11.9361 14.8697 10.8308 13.8869C9.96061 13.1147 9.38443 12.167 9.20805 11.8745C9.04342 11.582 9.18453 11.4299 9.33739 11.2778C9.46674 11.1491 9.63136 10.9385 9.77247 10.7747C9.91358 10.6109 9.97237 10.4822 10.0664 10.295C10.1605 10.0961 10.1135 9.9323 10.0429 9.7919C9.97237 9.6515 9.38443 8.2241 9.14925 7.6391C8.91408 7.0775 8.66714 7.1477 8.49076 7.136C8.31438 7.136 8.12624 7.136 7.92634 7.136C7.72644 7.136 7.42071 7.2062 7.15026 7.4987C6.89156 7.7912 6.139 8.4932 6.139 9.9206C6.139 11.348 7.18553 12.7286 7.32664 12.9158C7.46775 13.1147 9.38443 16.0397 12.3006 17.2916C12.9944 17.5958 13.5353 17.7713 13.9586 17.9C14.6524 18.1223 15.2873 18.0872 15.793 18.017C16.3574 17.9351 17.5215 17.315 17.7567 16.6364C18.0036 15.9578 18.0036 15.3845 17.9213 15.2558C17.839 15.1271 17.6626 15.0686 17.3686 14.9282Z" fill="#56CF64"/>
</svg>
